<?xml version="1.0" encoding="UTF-8" standalone="no"?>
<!-- Created with Inkscape (http://www.inkscape.org/) -->
<svg
   xmlns:svg="http://www.w3.org/2000/svg"
   xmlns="http://www.w3.org/2000/svg"
   version="1.0"
   width="800"
   height="282.08801"
   viewBox="0 0 800 282.088"
   id="Layer_1"
   xml:space="preserve"><defs
   id="defs46" />
<polyline
   fill="#0C479C"
   points="40.101,128.323 1.67,128.323 1.67,2.094 68.157,2.094 144.423,96.339 144.423,2.094 182.86,2.094   182.86,128.323 117.726,128.323 40.101,32.482 40.101,128.323 "
   id="polyline3"
   style="fill:#0c479c" />
<path
   d="M 313.746,97.936 C 322.531,97.936 325.628,97.438 327.723,95.597 C 329.698,93.867 330.559,91.639 330.559,84.227 L 330.559,45.692 C 330.559,38.289 329.698,36.069 327.723,34.331 C 325.628,32.482 322.532,31.991 313.746,31.991 L 251.337,31.991 C 242.56,31.991 239.463,32.482 237.369,34.331 C 235.393,36.069 234.524,38.289 234.524,45.692 L 234.524,84.226 C 234.524,91.638 235.393,93.866 237.369,95.596 C 239.463,97.437 242.559,97.935 251.337,97.935 L 313.746,97.935 M 366.775,89.299 C 366.775,106.831 363.561,112.885 358.251,118.685 C 350.09,127.335 338.23,129.928 315.373,129.928 L 249.732,129.928 C 226.861,129.928 214.994,127.335 206.839,118.685 C 201.523,112.885 198.314,106.831 198.314,89.299 L 198.314,40.628 C 198.314,23.095 201.523,17.051 206.839,11.235 C 214.994,2.592 226.861,0 249.732,0 L 315.373,0 C 338.23,0 350.09,2.592 358.251,11.235 C 363.562,17.05 366.775,23.094 366.775,40.628 L 366.775,89.299 z "
   style="fill:#0c479c"
   id="path5" />
<path
   d="M 490.496,2.094 L 543.517,2.094 L 471.952,61.131 L 552.689,128.323 L 495.923,128.323 L 422.634,62.49 L 490.496,2.094 M 382.467,2.094 L 422.634,2.094 L 422.634,128.323 L 382.467,128.323 L 382.467,2.094 z "
   style="fill:#0c479c"
   id="path7" />
<rect
   width="40.183998"
   height="126.229"
   x="560.08398"
   y="2.0940001"
   style="fill:#0c479c"
   id="rect9" />
<path
   d="M 677.751,78.918 L 727.691,78.918 L 702.71,33.225 L 677.751,78.918 M 753.402,128.323 L 741.535,106.335 L 663.798,106.335 L 652.05,128.323 L 607.672,128.323 L 678.873,2.094 L 728.799,2.094 L 800,128.323 L 753.402,128.323 z "
   style="fill:#0c479c"
   id="path11" />
<path
   d="M 41.044,260.976 C 38.311,261.955 31.761,262.573 26.823,262.573 C 3.713,262.572 0,236.647 0,217.236 C 0,203.534 2.109,188.221 9.884,178.71 C 14.332,173.273 19.53,170.437 29.422,170.437 C 33.744,170.437 37.695,171.053 41.044,171.795 L 41.044,179.949 C 37.695,179.081 34.353,178.352 29.919,178.352 C 23.243,178.352 20.147,180.81 17.563,184.65 C 12.246,192.671 11.258,206.735 11.258,216.501 C 11.258,224.157 11.488,234.301 14.095,242.076 C 16.686,249.977 20.771,254.671 29.296,254.671 C 33.254,254.671 36.826,254.048 41.044,252.934 L 41.044,260.976"
   style="fill:#0c479c"
   id="path13" />
<path
   d="M 66.739,197.854 C 55.258,197.854 53.765,214.043 53.765,224.916 C 53.765,237.748 54.871,254.917 66.739,254.917 C 78.368,254.917 79.474,237.266 79.474,225.146 C 79.474,214.414 77.87,197.854 66.739,197.854 M 66.62,262.572 C 46.599,262.572 43.265,242.187 43.265,225.026 C 43.265,208.725 48.33,190.197 66.873,190.197 C 85.282,190.197 89.983,208.607 89.983,224.765 C 89.982,241.816 86.655,262.572 66.62,262.572 z "
   style="fill:#0c479c"
   id="path15" />
<path
   d="M 109.765,201.686 C 113.225,194.401 118.788,190.198 126.571,190.198 C 140.161,190.198 144.238,199.844 144.238,212.417 L 144.238,261.585 L 133.983,261.585 L 133.983,216.502 C 133.983,210.82 133.731,206.625 132.498,203.417 C 131.25,200.201 128.911,197.854 124.471,197.854 C 114.334,197.854 111.735,209.966 111.735,217.125 L 111.735,261.585 L 101.48,261.585 L 101.48,191.186 L 107.287,191.186 L 109.765,201.686"
   style="fill:#0c479c"
   id="path17" />
<path
   d="M 165.988,201.686 C 169.456,194.401 175.026,190.198 182.801,190.198 C 196.398,190.198 200.475,199.844 200.475,212.417 L 200.475,261.585 L 190.22,261.585 L 190.22,216.502 C 190.22,210.82 189.967,206.625 188.735,203.417 C 187.502,200.201 185.148,197.854 180.707,197.854 C 170.571,197.854 167.964,209.966 167.964,217.125 L 167.964,261.585 L 157.716,261.585 L 157.716,191.186 L 163.516,191.186 L 165.988,201.686"
   style="fill:#0c479c"
   id="path19" />
<path
   d="M 245.841,221.565 C 245.841,211.325 244.349,197.853 234.835,197.853 C 224.825,197.853 222.598,211.57 221.981,221.565 L 245.841,221.565 M 253.499,259.861 C 248.062,261.584 242.374,262.572 236.566,262.572 C 215.305,262.572 211.607,244.289 211.607,226.384 C 211.607,210.819 215.929,190.33 234.836,190.33 C 255.727,190.33 255.853,213.789 255.853,228.976 L 221.982,228.976 C 221.982,240.219 223.712,254.915 237.554,254.915 C 242.374,254.915 247.32,253.927 253.499,252.205 L 253.499,259.861 z "
   style="fill:#0c479c"
   id="path21" />
<path
   d="M 301.211,260.724 C 298.239,261.459 293.791,262.573 288.236,262.573 C 269.93,262.573 264.748,244.669 264.748,226.385 C 264.748,205.012 272.167,190.197 289.47,190.197 C 293.428,190.197 297.007,190.561 299.607,191.066 L 299.607,198.974 C 296.518,198.217 294.038,197.853 290.339,197.853 C 278.101,197.853 275.249,210.21 275.249,226.749 C 275.249,240.583 277.104,254.916 290.205,254.916 C 294.171,254.916 298.359,253.928 301.211,253.193 L 301.211,260.724"
   style="fill:#0c479c"
   id="path23" />
<path
   d="M 341,261.095 C 337.168,261.955 332.965,262.573 329.141,262.573 C 322.101,262.573 318.759,260.465 316.665,256.758 C 315.054,253.669 314.437,250.335 314.437,241.818 L 314.437,198.85 L 305.533,198.85 L 305.533,191.185 L 314.184,191.185 L 318.632,175.501 L 324.692,175.501 L 324.692,191.185 L 338.044,191.185 L 338.044,198.85 L 324.692,198.85 L 324.692,241.453 C 324.692,247.87 325.182,250.469 326.051,252.073 C 326.911,253.928 328.769,254.917 332.482,254.917 C 334.577,254.917 337.428,254.546 341,253.669 L 341,261.095"
   style="fill:#0c479c"
   id="path25" />
<path
   d="M 355.836,180.944 C 351.997,180.944 349.034,177.862 349.034,173.904 C 349.034,169.931 351.997,166.856 355.836,166.856 C 359.55,166.856 362.632,170.072 362.632,173.904 C 362.632,177.862 359.669,180.944 355.836,180.944 M 361.028,261.584 L 350.765,261.584 L 350.765,198.85 L 343.606,198.85 L 343.606,191.185 L 361.028,191.185 L 361.028,261.584 L 361.028,261.584 z "
   style="fill:#0c479c"
   id="path27" />
<path
   d="M 383.41,201.686 C 386.849,194.401 392.426,190.198 400.209,190.198 C 413.799,190.198 417.891,199.844 417.891,212.417 L 417.891,261.585 L 407.635,261.585 L 407.635,216.502 C 407.635,210.82 407.383,206.625 406.15,203.417 C 404.903,200.201 402.556,197.854 398.1,197.854 C 387.978,197.854 385.379,209.966 385.379,217.125 L 385.379,261.585 L 375.115,261.585 L 375.115,191.186 L 380.916,191.186 L 383.41,201.686"
   style="fill:#0c479c"
   id="path29" />
<path
   d="M 452.622,197.854 C 441.363,197.854 439.5,214.043 439.5,226.75 C 439.5,236.768 440.384,254.049 452.369,254.049 C 464.244,254.049 464.972,238.245 464.972,225.405 C 464.971,214.896 463.739,197.854 452.622,197.854 M 469.434,191.185 L 475.234,191.185 L 475.234,257.887 C 475.234,264.793 473.995,269.991 470.668,274.425 C 466.954,279.252 461.014,282.088 453.231,282.088 C 447.052,282.088 440.131,280.863 433.581,279.132 L 433.581,271.328 C 440.257,273.073 446.94,274.305 451.998,274.305 C 464.354,274.305 465.343,267.875 465.343,257.515 L 465.343,253.052 C 462.372,257.753 456.698,261.711 450.387,261.711 C 432.216,261.711 429,240.725 429,225.531 C 429,210.077 433.581,190.197 451.129,190.197 C 458.437,190.197 463.612,195.142 466.688,200.691 L 469.434,191.185 z "
   style="fill:#0c479c"
   id="path31" />
<path
   d="M 526.779,220.696 C 532.95,220.696 537.027,220.088 540.25,217.006 C 543.956,213.412 544.943,206.735 544.943,198.73 C 544.943,190.45 543.198,183.774 538.378,181.056 C 536.545,180.076 534.316,179.081 527.01,179.081 L 521.083,179.081 L 521.083,220.696 L 526.779,220.696 M 524.543,171.424 C 535.051,171.424 538.623,172.175 542.091,173.526 C 551.233,176.979 555.444,185.385 555.444,198.975 C 555.444,208.726 552.845,216.753 548.04,221.684 C 543.956,225.903 538.141,228.361 529.861,228.361 L 521.083,228.361 L 521.083,261.585 L 510.827,261.585 L 510.827,171.425 L 524.543,171.425 L 524.543,171.424 z "
   style="fill:#0c479c"
   id="path33" />
<path
   d="M 595.864,221.565 C 595.864,211.325 594.401,197.853 584.859,197.853 C 574.834,197.853 572.621,211.57 572.011,221.565 L 595.864,221.565 M 603.528,259.861 C 598.091,261.584 592.396,262.572 586.589,262.572 C 565.343,262.572 561.63,244.289 561.63,226.384 C 561.63,210.819 565.952,190.33 584.859,190.33 C 605.748,190.33 605.89,213.789 605.89,228.976 L 572.011,228.976 C 572.011,240.219 573.734,254.915 587.583,254.915 C 592.396,254.915 597.333,253.927 603.527,252.205 L 603.527,259.861 L 603.528,259.861 z "
   style="fill:#0c479c"
   id="path35" />
<path
   d="M 638.259,197.854 C 626.756,197.854 625.286,214.043 625.286,224.916 C 625.286,237.748 626.377,254.917 638.259,254.917 C 649.881,254.917 650.98,237.266 650.98,225.146 C 650.98,214.414 649.384,197.854 638.259,197.854 M 638.119,262.572 C 618.105,262.572 614.771,242.187 614.771,225.026 C 614.771,208.725 619.835,190.197 638.386,190.197 C 656.78,190.197 661.488,208.607 661.488,224.765 C 661.488,241.816 658.154,262.572 638.119,262.572 z "
   style="fill:#0c479c"
   id="path37" />
<path
   d="M 683.232,253.557 C 685.474,254.173 689.299,254.545 691.638,254.545 C 705.384,254.545 708.206,241.452 708.206,225.769 C 708.206,207.107 704.389,197.854 695.729,197.854 C 689.795,197.854 683.231,202.799 683.231,219.464 L 683.231,253.557 M 681.272,201.44 C 685.23,193.784 691.385,190.197 698.456,190.197 C 715.744,190.197 718.722,208.725 718.722,225.768 C 718.722,246.027 711.296,262.185 691.037,262.185 C 688.809,262.185 685.097,261.955 683.232,261.458 L 683.232,281.716 L 672.992,281.716 L 672.992,191.184 L 678.792,191.184 L 681.272,201.44 z "
   style="fill:#0c479c"
   id="path39" />
<rect
   width="10.256"
   height="95.728996"
   x="730.20898"
   y="165.854"
   style="fill:#0c479c"
   id="rect41" />
<path
   d="M 786.203,221.565 C 786.203,211.325 784.718,197.853 775.213,197.853 C 765.202,197.853 762.952,211.57 762.336,221.565 L 786.203,221.565 M 793.881,259.861 C 788.43,261.584 782.756,262.572 776.935,262.572 C 755.666,262.572 751.976,244.289 751.976,226.384 C 751.976,210.819 756.268,190.33 775.212,190.33 C 796.101,190.33 796.205,213.789 796.205,228.976 L 762.335,228.976 C 762.335,240.219 764.087,254.915 777.922,254.915 C 782.756,254.915 787.687,253.927 793.881,252.205 L 793.881,259.861 z "
   style="fill:#0c479c"
   id="path43" />
</svg>