<?xml version="1.0" encoding="UTF-8" standalone="no"?>
<!-- Created with Inkscape (http://www.inkscape.org/) -->
<svg
   xmlns:dc="http://purl.org/dc/elements/1.1/"
   xmlns:cc="http://creativecommons.org/ns#"
   xmlns:rdf="http://www.w3.org/1999/02/22-rdf-syntax-ns#"
   xmlns:svg="http://www.w3.org/2000/svg"
   xmlns="http://www.w3.org/2000/svg"
   xmlns:sodipodi="http://sodipodi.sourceforge.net/DTD/sodipodi-0.dtd"
   xmlns:inkscape="http://www.inkscape.org/namespaces/inkscape"
   width="500"
   height="235.85306"
   id="svg2"
   sodipodi:version="0.32"
   inkscape:version="0.46"
   version="1.0"
   sodipodi:docname="drawing.svg"
   inkscape:output_extension="org.inkscape.output.svg.inkscape">
  <defs
     id="defs4">
    <inkscape:perspective
       sodipodi:type="inkscape:persp3d"
       inkscape:vp_x="0 : 526.18109 : 1"
       inkscape:vp_y="0 : 1000 : 0"
       inkscape:vp_z="744.09448 : 526.18109 : 1"
       inkscape:persp3d-origin="372.04724 : 350.78739 : 1"
       id="perspective10" />
    <clipPath
       id="clipPath2520"
       clipPathUnits="userSpaceOnUse">
      <path
         id="path2522"
         d="M 0.06,651 L 476.1,651 L 476.1,0 L 0.06,0 L 0.06,651 z" />
    </clipPath>
    <clipPath
       id="clipPath2512"
       clipPathUnits="userSpaceOnUse">
      <path
         id="path2514"
         d="M 0,651 L 476,651 L 476,0 L 0,0 L 0,651 z" />
    </clipPath>
    <clipPath
       id="clipPath2492"
       clipPathUnits="userSpaceOnUse">
      <path
         id="path2494"
         d="M 0.06,651 L 476.1,651 L 476.1,0 L 0.06,0 L 0.06,651 z" />
    </clipPath>
    <clipPath
       id="clipPath2484"
       clipPathUnits="userSpaceOnUse">
      <path
         id="path2486"
         d="M 0,651 L 476,651 L 476,0 L 0,0 L 0,651 z" />
    </clipPath>
    <clipPath
       id="clipPath2476"
       clipPathUnits="userSpaceOnUse">
      <path
         id="path2478"
         clip-rule="evenodd"
         d="M 175.88,289.32 L 264.55,289.32 L 264.55,234.76 L 175.88,234.76 L 175.88,289.32 z" />
    </clipPath>
    <clipPath
       id="clipPath2452"
       clipPathUnits="userSpaceOnUse">
      <path
         id="path2454"
         d="M 0.06,651 L 476.1,651 L 476.1,0 L 0.06,0 L 0.06,651 z" />
    </clipPath>
    <clipPath
       id="clipPath2444"
       clipPathUnits="userSpaceOnUse">
      <path
         id="path2446"
         d="M 0,651 L 476,651 L 476,0 L 0,0 L 0,651 z" />
    </clipPath>
    <clipPath
       id="clipPath2436"
       clipPathUnits="userSpaceOnUse">
      <path
         id="path2438"
         clip-rule="evenodd"
         d="M 260.55,378.32 L 375.6,378.32 L 375.6,355.9 L 260.55,355.9 L 260.55,378.32 z" />
    </clipPath>
    <clipPath
       id="clipPath2426"
       clipPathUnits="userSpaceOnUse">
      <path
         id="path2428"
         d="M 0.06,651 L 476.1,651 L 476.1,0 L 0.06,0 L 0.06,651 z" />
    </clipPath>
    <clipPath
       id="clipPath2418"
       clipPathUnits="userSpaceOnUse">
      <path
         id="path2420"
         d="M 0,651 L 476,651 L 476,0 L 0,0 L 0,651 z" />
    </clipPath>
    <inkscape:perspective
       id="perspective2410"
       inkscape:persp3d-origin="372.04724 : 350.78739 : 1"
       inkscape:vp_z="744.09448 : 526.18109 : 1"
       inkscape:vp_y="0 : 1000 : 0"
       inkscape:vp_x="0 : 526.18109 : 1"
       sodipodi:type="inkscape:persp3d" />
  </defs>
  <sodipodi:namedview
     id="base"
     pagecolor="#ffffff"
     bordercolor="#666666"
     borderopacity="1.0"
     gridtolerance="10000"
     guidetolerance="10"
     objecttolerance="10"
     inkscape:pageopacity="0.0"
     inkscape:pageshadow="2"
     inkscape:zoom="1"
     inkscape:cx="411.85255"
     inkscape:cy="107.84785"
     inkscape:document-units="px"
     inkscape:current-layer="layer1"
     showgrid="false"
     inkscape:window-width="1680"
     inkscape:window-height="994"
     inkscape:window-x="-4"
     inkscape:window-y="-4" />
  <metadata
     id="metadata7">
    <rdf:RDF>
      <cc:Work
         rdf:about="">
        <dc:format>image/svg+xml</dc:format>
        <dc:type
           rdf:resource="http://purl.org/dc/dcmitype/StillImage" />
      </cc:Work>
    </rdf:RDF>
  </metadata>
  <g
     inkscape:label="Layer 1"
     inkscape:groupmode="layer"
     id="layer1"
     transform="translate(-71.756477,-167.06864)">
    <g
       id="g2472"
       transform="matrix(7.0593551,0,0,-7.0593551,-1219.9502,2145.5235)">
      <g
         id="g2474"
         clip-path="url(#clipPath2476)">
        <g
           id="g2480">
          <g
             id="g2482"
             clip-path="url(#clipPath2484)">
            <g
               id="g2488">
              <g
                 id="g2490"
                 clip-path="url(#clipPath2492)">
                <path
                   d="M 199.679,246.85 C 208.905,246.85 216.384,254.341 216.384,263.553 C 216.384,272.782 208.905,280.26 199.679,280.26 C 190.454,280.26 182.978,272.782 182.978,263.553 C 182.978,254.341 190.454,246.85 199.679,246.85"
                   style="fill:#c4084f;fill-opacity:1;fill-rule:nonzero;stroke:none"
                   id="path2496" />
                <path
                   d="M 199.006,270.894 L 199.006,256.233 L 203.658,256.233 L 203.658,257.55 L 200.351,257.55 L 200.351,270.894 L 199.006,270.894"
                   style="fill:#ffffff;fill-opacity:1;fill-rule:nonzero;stroke:none"
                   id="path2498" />
                <path
                   d="M 194.342,266.886 C 195.445,266.886 196.353,267.782 196.353,268.888 C 196.353,270 195.445,270.898 194.342,270.898 C 193.239,270.898 192.337,270 192.337,268.888 C 192.337,267.782 193.239,266.886 194.342,266.886"
                   style="fill:#ffffff;fill-opacity:1;fill-rule:nonzero;stroke:none"
                   id="path2500" />
                <path
                   d="M 200.351,277.526 C 200.168,277.531 199.851,277.531 199.679,277.531 C 191.968,277.531 185.695,271.271 185.695,263.556 C 185.695,259.825 187.153,256.31 189.786,253.673 C 192.432,251.03 195.935,249.561 199.679,249.561 C 203.415,249.561 206.923,251.03 209.567,253.673 C 212.2,256.31 213.65,259.825 213.65,263.556 L 213.65,264.195 L 203.671,264.195 L 203.671,262.897 L 212.326,262.897 C 212.326,262.871 212.32,262.728 212.32,262.699 C 211.894,256.098 206.372,250.888 199.679,250.888 C 196.299,250.888 193.103,252.2 190.714,254.587 C 188.322,256.979 186.997,260.17 186.997,263.557 C 186.997,266.941 188.322,270.126 190.714,272.517 C 193.103,274.914 196.299,276.234 199.679,276.234 C 199.829,276.234 200.185,276.226 200.351,276.223 L 200.351,277.526"
                   style="fill:#ffffff;fill-opacity:1;fill-rule:nonzero;stroke:none"
                   id="path2502" />
                <path
                   d="M 224.74,271.906 L 229.667,271.906 L 229.667,259.376 L 237.001,259.376 L 237.001,255.203 L 224.74,255.203 L 224.74,271.906"
                   style="fill:#918f90;fill-opacity:1;fill-rule:nonzero;stroke:none"
                   id="path2504" />
                <path
                   d="M 249.591,256.866 C 248.722,255.537 247.118,254.778 245.091,254.778 C 240.742,254.778 237.913,258.244 237.913,263.573 C 237.913,268.994 241.119,272.329 246.36,272.329 C 248.478,272.329 250.272,271.772 251.644,270.708 C 253.048,269.594 253.583,268.506 253.806,266.306 L 248.634,266.306 C 248.5,267.599 247.542,268.42 246.249,268.42 C 244.267,268.42 243.104,266.573 243.104,263.506 C 243.104,260.398 244.312,258.534 246.337,258.534 C 247.966,258.534 248.878,259.419 249.257,261.424 L 246.071,261.424 L 246.071,264.933 L 253.806,264.933 L 253.806,255.203 L 249.591,255.203 L 249.591,256.866"
                   style="fill:#918f90;fill-opacity:1;fill-rule:nonzero;stroke:none"
                   id="path2506" />
              </g>
            </g>
          </g>
        </g>
      </g>
    </g>
  </g>
</svg>
