<?xml version="1.0" encoding="UTF-8" standalone="no"?>
<!-- Created with Inkscape (http://www.inkscape.org/) -->
<svg
   xmlns:dc="http://purl.org/dc/elements/1.1/"
   xmlns:cc="http://web.resource.org/cc/"
   xmlns:rdf="http://www.w3.org/1999/02/22-rdf-syntax-ns#"
   xmlns:svg="http://www.w3.org/2000/svg"
   xmlns="http://www.w3.org/2000/svg"
   xmlns:sodipodi="http://sodipodi.sourceforge.net/DTD/sodipodi-0.dtd"
   xmlns:inkscape="http://www.inkscape.org/namespaces/inkscape"
   width="698.10236"
   height="235.77165"
   id="svg10366"
   sodipodi:version="0.32"
   inkscape:version="0.44"
   version="1.0"
   sodipodi:docbase="R:\Logos"
   sodipodi:docname="Samsung_Logo.svg">
  <defs
     id="defs10368" />
  <sodipodi:namedview
     id="base"
     pagecolor="#ffffff"
     bordercolor="#666666"
     borderopacity="1.0"
     inkscape:pageopacity="0.0"
     inkscape:pageshadow="2"
     inkscape:zoom="0.35919193"
     inkscape:cx="372.04724"
     inkscape:cy="355.48646"
     inkscape:document-units="px"
     inkscape:current-layer="layer1"
     inkscape:window-width="925"
     inkscape:window-height="574"
     inkscape:window-x="66"
     inkscape:window-y="66"
     width="197.02mm"
     height="66.54mm"
     units="mm" />
  <metadata
     id="metadata10371">
    <rdf:RDF>
      <cc:Work
         rdf:about="">
        <dc:format>image/svg+xml</dc:format>
        <dc:type
           rdf:resource="http://purl.org/dc/dcmitype/StillImage" />
      </cc:Work>
    </rdf:RDF>
  </metadata>
  <g
     inkscape:label="Ebene 1"
     inkscape:groupmode="layer"
     id="layer1"
     transform="translate(-15.46551,-145.9927)">
    <path
       id="path7372"
       style="font-size:3.49419999px;letter-spacing:0;word-spacing:0.10133;fill:#034ea1;fill-rule:nonzero;stroke:none;font-family:fnt1, &quot;FranklinGothic&quot;, Arial"
       d="M 711.3447,200.95411 C 721.11853,254.77377 573.75654,326.63137 382.23111,361.4328 C 190.686,396.23424 27.462431,380.64711 17.688674,326.82747 C 7.9148377,272.90975 155.27677,201.05215 346.82188,166.34875 C 538.34736,131.54732 701.57094,147.03647 711.3447,200.95411 M 398.43583,279.47791 C 398.43583,250.85252 368.10463,257.42068 368.10463,245.85285 C 368.10463,242.61784 368.29092,240.36303 373.47679,240.36303 C 378.83914,240.36303 378.48626,245.26466 378.48626,250.26432 L 396.58303,250.26432 C 398.64165,232.03031 390.34815,227.32477 374.33951,227.32477 C 353.86056,227.32477 349.54713,233.89292 349.54713,248.5978 C 349.54713,273.792 378.63333,268.10618 378.63333,280.36016 C 378.63333,284.67358 377.06476,286.34012 374.30028,286.34012 C 367.81056,286.34012 368.01638,282.32082 368.01638,275.85071 L 348.1159,275.85071 C 346.75325,289.47717 351.18433,300.26071 370.94762,300.26071 C 383.10356,300.26071 398.43583,297.90795 398.43583,279.47791 M 132.45494,301.33905 C 144.60107,301.33905 159.94316,298.98629 159.94316,280.6543 C 159.94316,251.93086 129.61195,258.49902 129.61195,246.93119 C 129.61195,243.69618 129.79823,241.44145 134.97431,241.44145 C 140.33666,241.44145 139.97397,246.343 139.98378,251.34267 L 158.08054,251.34267 C 160.14898,233.10873 151.85547,228.40311 135.83702,228.40311 C 133.88616,228.40311 132.06276,228.50116 130.39623,228.59921 C 124.66138,231.05002 119.12254,233.50083 113.75038,236.04968 C 111.72108,239.38274 111.04465,243.89219 111.04465,249.67615 C 111.04465,274.87042 140.13085,269.18452 140.14065,281.43858 C 140.13085,285.75193 138.57209,287.41854 135.80761,287.41854 C 129.30809,287.41854 129.52371,283.49721 129.52371,276.92905 L 109.62323,276.92905 C 108.25076,290.55552 112.69165,301.33905 132.45494,301.33905 M 204.42031,245.06865 L 212.58637,298.79027 L 231.6537,298.79027 L 219.81134,230.06972 L 189.49001,230.06972 L 177.63794,298.79027 L 196.7248,298.79027 L 204.42031,245.06865 M 289.1201,267.22384 L 283.23816,229.67755 L 252.57376,229.67755 L 251.30913,298.59419 L 268.79803,298.59419 L 269.68035,247.61744 L 280.61096,298.59419 L 299.01157,298.59419 L 309.79513,247.42141 L 310.04997,298.59419 L 328.24477,298.59419 L 326.77425,229.67755 L 296.20788,229.67755 L 289.1201,267.22384 M 418.91471,228.89333 L 418.91471,278.98777 C 418.91471,292.32008 427.09064,300.75086 444.05996,300.75086 C 462.86258,300.75086 469.08757,289.57522 469.08757,278.98777 L 469.08757,228.89333 L 449.85371,228.89333 L 449.85371,278.59559 C 449.85371,283.79134 449.86352,286.53622 443.85414,286.53622 C 438.7074,286.53622 438.69761,283.79134 438.69761,278.59559 L 438.69761,228.89333 L 418.91471,228.89333 M 551.64047,298.10404 L 551.64047,228.89333 L 533.81823,228.89333 L 533.89667,270.55699 L 516.12346,228.89333 L 493.41922,228.89333 L 493.41922,298.10404 L 511.17282,298.10404 L 511.1532,256.53836 L 530.15182,298.10404 L 551.64047,298.10404 M 600.01934,225.1681 C 575.61915,225.1681 574.72709,243.79421 574.72709,262.12622 C 574.72709,287.90869 575.49169,298.69224 597.40193,299.67251 C 605.50915,296.24141 613.26351,292.71226 620.65514,289.18312 C 621.89035,287.12441 622.79224,284.86968 622.83147,282.32082 L 622.83147,259.28329 L 599.81352,259.28329 L 599.80373,269.67467 L 604.5877,269.67467 L 604.5877,280.16416 C 604.5877,284.96773 602.1761,285.84997 599.71548,285.84997 C 595.95103,285.84997 594.5198,283.79134 594.5198,280.16416 C 594.5198,275.94876 594.5296,259.18526 594.45117,246.24504 C 594.45117,241.63747 595.92162,239.28469 599.57822,239.28469 C 606.01893,239.28469 604.49946,244.9706 604.49946,249.7742 L 622.83147,249.7742 C 624.15489,233.2067 614.62617,225.1681 600.01934,225.1681" />
  </g>
</svg>
