<?xml version="1.0" encoding="UTF-8" standalone="no"?>
<svg xmlns="http://www.w3.org/2000/svg" xmlns:xlink="http://www.w3.org/1999/xlink" version="1.1" width="526" height="254">
<title xml:lang="en">AT&amp;T</title>
<defs>
<radialGradient id="fore_stripe" fx=".7" fy=".4" r=".6">
<stop offset="0" stop-color="#fff" />
<stop offset="0.55" stop-color="#fff" />
<stop offset="1" stop-color="#b1b4b6" />
</radialGradient>
<radialGradient id="Back_stripe" fx=".7" fy=".4" r=".6">
<stop offset="0" stop-color="#0096d6" />
<stop offset="0.7" stop-color="#0096d6" />
<stop offset="1" stop-color="#006c9b" />
</radialGradient>
<radialGradient id="Clear_grade" fx=".7" fy=".4" r=".6">
<stop offset="0" stop-color="#32a5dd" />
<stop offset="0.7" stop-color="#32a5dd" />
<stop offset="1" stop-color="#2277a0" />
</radialGradient>
</defs>
<path id="backclear" fill="url(#Clear_grade)" d="m 235.95898,109.82568 c 0,-1.84277 -0.23437,-5.50195 -1.10156,-9.25195 -0.60351,-2.507812 -1.29492,-5.015624 -2.07422,-7.464843 1.35352,4.614258 1.16016,7.872073 1.16016,9.108403 0,5.65429 -7.04297,40.1538 -75.95508,46.43505 -5.9707,0.52149 -49.75195,1.2129 -87.83203,-8.41406 -25.335938,-6.40039 -50.759766,-18.79638 -55.570313,-36.00537 -0.75,-2.68066 -0.398437,-5.159179 0.175782,-7.461914 -1.933594,6.858404 -3.228516,14.039064 -3.832032,21.389654 0.427735,18.09912 16.166016,39.19287 44.958985,48.30419 32.917969,10.35352 53.126948,10.69922 100.968748,0.0293 79.85156,-17.8125 79.10156,-52.7749 79.10156,-56.66846 z M 58.367187,206.13281 C 39.546875,198.3457 26.521484,185.40234 21.300781,175.95117 c 4.810547,10.20117 11.097656,19.62891 18.591797,27.90235 24.527344,23.05664 62.232422,25.85156 79.558592,25.85156 73.32422,0 99.49805,-38.53711 105.4336,-48.85547 1.0957,-2.07422 2.13281,-4.17773 3.08789,-6.31641 -11.58985,23.90039 -71.77149,72.01172 -169.605473,31.59961 z M 138.1543,191.02149 c -22.19532,0.78515 -61.253909,-6.85547 -85.869144,-16.92188 -19.798828,-8.0625 -39.398437,-23.80078 -41.478515,-38.82031 0.234375,3.60547 0.638672,7.17383 1.21289,10.66601 12.134766,66.21094 95.554689,62.43164 109.910159,60.84961 104.91797,-11.64843 113.93554,-56.4375 115.32422,-65.28515 0.19922,-1.85157 0.39843,-3.69141 0.54492,-5.56641 -1.86914,11.7832 -19.59961,52.20117 -99.64453,55.07813 M 43.296875,57.141113 c 0,10.374024 15.070312,26.944336 58.798825,26.944336 25.91602,0 46.83985,-5.015625 62.63672,-10.259765 25.33594,-8.416993 37.86914,-18.708985 37.41211,-26.370118 -0.0586,-1.180664 -0.52148,-3.114257 -1.92773,-4.643554 -5.625,-5.044922 -11.75977,-9.539063 -18.31055,-13.374024 4.33008,2.507813 6.7793,5.449219 6.7793,8.707032 0,11.411133 -27.90235,21.875976 -64.3418,22.828125 -36.433594,0.919922 -66.632812,-8.044922 -67.447266,-19.426758 -0.257812,-3.779297 2.449219,-7.494141 7.611329,-10.78125 -3.949219,2.446289 -7.722657,5.097656 -11.296875,7.983398 -10.148438,8.414063 -9.914063,17.293946 -9.914063,18.392578 z m -23.4375,32.223633 c 0,-4.87207 0.691406,-8.273437 1.986328,-11.332031 2.220703,-4.523438 4.699219,-8.90332 7.470703,-13.081055 -0.720703,1.177735 -1.125,2.53125 -1.125,4.145508 0,10.579102 25.910156,24.331055 61.283203,28.825195 11.988281,1.529297 43.722661,5.856447 68.279301,3.834967 49.60546,-4.092779 60.61523,-21.416021 60.61523,-32.660162 0,-3.082031 -1.66406,-7.576172 -3.33984,-10.198242 2.25,2.99414 4.37695,6.076172 6.33984,9.28125 3.80859,6.600586 3.31641,9.222656 3.31641,10.374023 0,22.998051 -42.8086,37.992191 -71.42578,45.829101 C 79.783203,144.44531 19.859375,117.09131 19.859375,89.364746 z" />
<path id="backstripes" fill="url(#Back_stripe)" d="m 11.533203,138.56836 c -0.316406,-1.10156 -0.574219,-2.19141 -0.726562,-3.28906 0.175781,2.79687 0.46289,5.53906 0.83789,8.26953 -0.169922,-1.66992 -0.199218,-3.31055 -0.111328,-4.98047 z m 3.169922,-41.562989 c -0.720703,2.53125 -1.330078,5.129889 -1.875,7.751959 0.287109,-1.01075 0.75,-2.10645 1.324219,-3.29004 -0.0293,-1.552739 0.205078,-3.052739 0.550781,-4.461919 z m 6.65625,79.027829 c 2.625,5.625 5.736328,10.98047 9.193359,16.03125 -1.86914,-3.02343 -3.427734,-6.16992 -4.669922,-9.42773 -1.86914,-2.30273 -3.36914,-4.5293 -4.523437,-6.60352 z M 35.685546,79.881348 c -1.41211,-1.069336 -2.648437,-2.16211 -3.691405,-3.257813 -4.927735,3.401367 -9.017579,7.03125 -12.105469,10.863282 -0.0293,0.606445 -0.0293,1.242187 -0.0293,1.877929 0,1.207032 0.117187,2.449219 0.351562,3.65625 3.773438,-4.236328 8.958987,-8.791992 15.474612,-13.139648 z M 215.63283,78.782715 c 3.0586,1.590821 5.8242,3.287109 8.27342,5.106445 0.52148,-1.728515 0.7793,-3.515625 0.7793,-5.334961 0,-1.12207 0.45703,-3.720703 -3.16993,-10.145508 -1.96289,-3.199218 -4.06054,-6.313476 -6.3867,-9.354491 1.62892,2.581055 3.24025,6.990235 3.24025,10.042969 0,2.912109 -0.75001,6.257812 -2.73634,9.685546 z M 29.228516,65.065918 c -0.316407,0.486328 -0.632813,0.978516 -0.949219,1.470703 l 0.544922,-0.635742 c 0.117187,-0.290039 0.257812,-0.547852 0.404297,-0.834961 z M 188.53906,36.759277 c 4.52344,1.845703 8.67774,4.122071 12.33399,6.916993 l -0.62696,-0.834961 c -3.66797,-3.28711 -7.52343,-6.342774 -11.5957,-9.137696 -1.03711,-0.635742 -2.12695,-1.242187 -3.25781,-1.787109 1.67578,1.5 2.77148,3.114258 3.14648,4.842773 z m 20.90039,159.225103 c -0.29297,1.64062 -0.6914,3.25195 -1.15429,4.8457 9.28125,-8.27344 14.32617,-16.05469 16.57031,-19.92188 l 0.23437,-0.43359 -0.0879,-0.83203 c -3.45703,5.09766 -8.67772,10.80469 -15.56249,16.3418 z m -137.636726,0 c 0,-5.02149 1.212891,-9.80274 3.404297,-14.26758 -2.830078,-0.75586 -5.595703,-1.5586 -8.273437,-2.39063 -2.16211,4.69922 -3.345703,9.73828 -3.345703,14.95313 0,2.36719 0.257812,4.69922 0.720703,6.94922 2.794922,0.89648 5.61914,1.64648 8.443359,2.30859 -0.632812,-2.44922 -0.949219,-4.95703 -0.949219,-7.55273 z M 234.91602,100.80811 c -0.26368,-1.06934 -0.52149,-2.135747 -0.8086,-3.22852 -0.16406,-0.37793 -0.33984,-0.75 -0.54492,-1.098633 0.49219,2.827149 0.38086,4.813473 0.38086,5.736333 0,1.84277 -0.75586,6.80566 -4.21289,12.8291 1.58203,1.8164 2.9707,3.71484 4.11914,5.6748 2.16211,-5.62207 2.10937,-9.71191 2.10937,-10.89551 0,-1.81054 -0.23437,-5.33496 -1.04296,-9.01757 z m -0.0879,44.21728 c -1.06054,2.29688 -2.47851,4.83985 -4.26562,7.48828 0.49219,1.64649 0.80859,3.25782 0.98437,4.79297 1.86915,-3.21094 3.10547,-6.17578 3.94922,-8.67773 -0.17578,-1.13086 -0.38086,-2.33789 -0.66797,-3.60352 z m -12.25195,24.09375 c -0.62695,-1.69922 -1.32422,-3.375 -2.12695,-5.01562 -3.63281,3.3164 -8.00977,6.62695 -13.20117,9.71484 0.77929,2.07422 1.4414,4.23047 1.89843,6.39844 5.47852,-3.66797 9.89063,-7.40625 13.42969,-11.09766 z M 51.482422,71.174316 C 63.476562,65.695801 78.201172,61.377441 95.580078,59.558106 89.615234,58.778809 84.136719,57.744629 79.296875,56.443848 67.90625,59.587402 57.21875,63.36084 47.878906,67.717285 c 1.007813,1.154297 2.214844,2.305664 3.603516,3.457031 z M 22.800781,165.89063 c 0,-3.25782 0.369141,-6.45704 1.03711,-9.56836 -1.640625,-1.5586 -3.199219,-3.11719 -4.582032,-4.73438 -1.037109,4.61719 -1.324218,9.25781 -0.779297,13.89844 1.5,2.94141 3.169922,5.64844 5.015625,8.21484 -0.46289,-2.5664 -0.691406,-5.1914 -0.691406,-7.81054 z m -4.265625,-53.58057 c -2.970703,4.06348 -5.220703,8.50195 -6.568359,13.34473 0.339844,1.4707 0.802734,2.96191 1.347656,4.43896 1.705078,-4.81689 4.529297,-9.54541 8.273438,-14.03955 -1.119141,-1.21289 -2.15625,-2.44922 -3.052735,-3.74414 M 57.875,44.684082 c -5.097656,2.135742 -9.679688,4.356445 -13.599609,6.544922 -0.691407,2.106445 -0.896485,3.805664 -0.949219,4.87207 5.009765,-2.595703 11.009765,-5.25 17.695312,-7.839844 C 59.632812,47.106934 58.601562,45.92627 57.875,44.684082 z m 143.63672,6.257813 c -5.2207,-1.816407 -11.44336,-3.143555 -18.39258,-4.066407 -8.09766,6.225586 -24.47461,11.241211 -44.87695,13.227539 12.82617,1.303711 28.45312,3.518555 43.34765,6.978516 11.27344,-5.446289 17.92969,-11.124023 19.92188,-16.139648 z M 181.25,184.71094 c 1.03711,2.74219 1.69922,5.5957 1.95703,8.50195 3.33985,-1.23633 6.45117,-2.53125 9.36914,-3.85547 -0.375,-2.63086 -1.03711,-5.1914 -1.99219,-7.69922 -2.9414,1.08985 -6.02343,2.13282 -9.33398,3.05274 z m -10.14844,37.21289 c 5.33203,-1.81641 10.20117,-3.86719 14.64258,-6.05274 1.70508,-2.39062 3.11133,-4.89843 4.23633,-7.52929 -3.69141,1.85156 -7.66992,3.60937 -11.84766,5.16797 -1.89844,3.02343 -4.26562,5.84765 -7.03125,8.41406 z M 38.597656,194.77149 c 0.978516,4.15429 2.53125,8.12695 4.587891,11.98828 4.03125,3.33984 8.355469,6.22851 12.849609,8.70703 -3.257812,-4.38281 -5.765625,-9.10547 -7.347656,-14.0625 -3.691406,-2.07422 -7.037109,-4.30078 -10.089844,-6.63281 z M 215.11133,130.78516 c 2.68359,2.25 4.98633,4.46093 6.91992,6.68164 2.79492,-2.65039 5.04492,-5.24414 6.80273,-7.68946 -1.32421,-2.31201 -2.87695,-4.61474 -4.75781,-6.9497 -2.38476,2.65137 -5.32617,5.36426 -8.96484,7.95752 z M 26,149.08008 c 2.824219,-7.25391 7.441406,-14.0293 13.517578,-20.11475 -2.044922,-1.03711 -4.001953,-2.15918 -5.853516,-3.28711 -5.332031,5.82764 -9.451171,12.10498 -12.076171,18.59717 1.324218,1.64063 2.824218,3.25781 4.412109,4.80469 z M 233.27539,94.693848 c -0.11719,-0.372071 -0.25781,-0.773438 -0.38086,-1.151367 0.0937,0.316406 0.17578,0.606445 0.23438,0.893554 l 0.14648,0.257813 z M 76.583984,212.7832 c -3.134765,-1.00781 -6.310547,-2.09765 -9.539062,-3.28711 2.566406,5.51368 6.515625,10.55274 11.554687,14.93555 4.183594,1.14844 8.302735,2.07422 12.310547,2.79492 C 84.828125,223.2832 79.900391,218.34961 76.583984,212.7832 z M 108.52344,100.20166 c -8.03906,-0.834961 -14.783206,-1.734375 -19.048831,-2.279297 -2.771484,-0.342773 -5.478515,-0.75 -8.103515,-1.21289 -15.304688,4.842777 -28.740235,12.169927 -39.234375,20.897457 2.138672,1.1836 4.388672,2.31153 6.779297,3.37793 15.27539,-11.12988 36.146484,-18.70605 59.607424,-20.7832 m -61.857424,88.62842 c 0,-5.44336 0.949218,-10.80469 2.800781,-15.93164 -3.087891,-1.35352 -6.117188,-2.91797 -9.082031,-4.58789 -1.957032,5.21484 -3,10.69922 -3,16.31836 0,1.11914 0.05859,2.2207 0.146484,3.31054 3.023437,2.2793 6.199219,4.29493 9.480469,6.08204 -0.228516,-1.72266 -0.345703,-3.45704 -0.345703,-5.19141 z m 31.880859,-46.66406 c -2.824219,-0.57422 -5.619141,-1.23633 -8.390625,-1.92774 -1.787109,-0.46289 -3.544922,-0.91992 -5.302734,-1.44726 -9.222657,6.40429 -16.546875,14.10351 -21.298829,22.6875 2.91211,1.4414 6.023438,2.76562 9.310547,3.94922 2.765625,-4.89844 6.398438,-9.42188 10.921875,-13.40625 4.265625,-3.73829 9.228516,-7.03125 14.759766,-9.85547 z M 50.216797,87.896973 c -8.91211,4.347656 -17.619141,9.767578 -24.621094,16.397457 1.066406,1.35645 2.273438,2.68067 3.632813,3.97852 7.634765,-6.74414 17.267578,-12.799805 27.925781,-17.701173 -2.44336,-0.864257 -4.78125,-1.757812 -6.9375,-2.674804 z M 198.88672,139.57617 c -5.07422,2.04492 -10.86914,3.88477 -17.4668,5.41407 4.78711,2.9121 9.11133,6.16992 12.85547,9.77343 5.38477,-2.33203 10.08399,-4.75781 14.15625,-7.20703 -2.88867,-2.82422 -6.05859,-5.50781 -9.54492,-7.98047 z m -13.42969,-25.82763 c 6.02344,-2.45215 11.84766,-5.15918 17.0918,-8.15918 -5.44922,-2.90918 -11.78906,-5.56055 -19.14258,-7.781254 -7.11914,1.757812 -15.5918,3.114254 -25.65234,3.949224 -2.99414,0.25781 -6.07618,0.40136 -9.25196,0.48925 7.03711,1.32715 13.78125,3.14649 20.14453,5.24414 6.16993,2.04786 11.73633,4.12207 16.81055,6.25782 z m 25.18945,-13.3711 c 5.73633,-4.242186 10.11914,-8.941405 12.36914,-14.100584 -2.74218,-1.699219 -5.85937,-3.28418 -9.22851,-4.751953 -3.33984,4.289062 -8.81836,8.53125 -17.37891,12.076171 5.04492,2.047852 9.83203,4.321289 14.23828,6.776366 z m -64.54101,48.53858 c -7.23047,-0.0293 -17.0625,-0.35157 -28.1543,-1.21289 -19.658201,2.27343 -36.380857,11.06836 -45.890623,23.23242 3.146484,0.7207 6.251953,1.32422 9.310547,1.83984 10.02539,-11.0039 26.976566,-18.24609 46.201176,-18.24609 14.03906,0 26.87109,3.83203 36.66796,10.20703 3.80274,-0.94922 7.44141,-1.95703 10.83985,-3 -7.81055,-5.99414 -17.75977,-10.48828 -28.97461,-12.82031 z m -2.27344,-69.324711 c 7.75195,-1.696289 14.73047,-3.717774 20.90039,-5.765625 3.39844,-1.122071 6.53906,-2.302735 9.45703,-3.454102 -8.67773,-1.614258 -16.40625,-2.625 -21.62109,-3.084961 -19.82813,-1.819336 -49.34766,3.826172 -56.988282,5.416992 -2.361328,0.462891 -13.136719,2.707032 -26.285156,7.289063 3.082031,0.925781 6.515625,1.705078 10.230469,2.334961 11.90625,-3.342774 24.216799,-5.214844 35.882809,-5.214844 7.72852,0 17.61914,0.805664 28.42383,2.478516 z m 9.42774,44.791991 c 1.93359,-0.54785 3.94921,-1.09277 5.99414,-1.69922 -8.81836,-1.90136 -18.1875,-2.90918 -27.93164,-2.90918 -18.42188,0 -35.625004,3.65918 -50.156254,10.00244 20.818364,2.90821 45.574214,1.83985 72.093754,-5.39404 z" />
<path id="forestripes" fill="url(#fore_stripe)" d="m 14.761719,96.770996 c 1.810547,-6.515625 4.207031,-12.767578 7.083984,-18.738281 -1.294922,3.058594 -1.986328,6.459961 -1.986328,11.332031 0,27.726564 59.923828,55.080564 133.400395,35.018554 28.61718,-7.83691 71.42578,-22.83105 71.42578,-45.829101 0,-1.151367 0.49218,-3.773437 -3.31641,-10.374023 4.75781,7.751953 8.58984,16.081055 11.41406,24.928711 1.35352,4.614258 1.16016,7.872073 1.16016,9.108403 0,5.65429 -7.04297,40.1538 -75.95508,46.43505 -5.9707,0.52149 -49.75195,1.2129 -87.83203,-8.41406 -25.335937,-6.40039 -50.759765,-18.79638 -55.570312,-36.00537 -0.75,-2.68066 -0.398438,-5.159179 0.175781,-7.461914 z M 121.92969,206.79492 c -14.35547,1.58203 -97.775393,5.36133 -109.910159,-60.84961 1.705078,10.57618 4.869141,20.63086 9.28125,30.00586 5.220703,9.45117 18.246094,22.39453 37.066406,30.18164 97.833983,40.41211 158.015623,-7.69922 169.605473,-31.59961 4.66406,-10.28906 7.83984,-21.38086 9.28125,-33.02343 -1.38868,8.84765 -10.40625,53.63672 -115.32422,65.28515 z m -2.47852,22.91016 c -17.32617,0 -55.031248,-2.79492 -79.558592,-25.85156 20.8125,23.02734 50.935547,37.5 84.427732,37.5 43.57617,0 81.45703,-24.50391 100.56446,-60.50391 -5.93555,10.31836 -32.10938,48.85547 -105.4336,48.85547 z M 52.285156,174.09961 c 24.615235,10.06641 63.673824,17.70703 85.869144,16.92188 80.04492,-2.87696 97.77539,-43.29493 99.64453,-55.07813 0.17578,-2.77148 0.28711,-5.56641 0.28711,-8.36377 0,-9.30469 -1.08985,-18.33105 -3.22852,-27.00586 0.86719,3.75 1.10156,7.40918 1.10156,9.25195 0,3.89356 0.75,38.85596 -79.10156,56.66846 -47.84179,10.66992 -68.050779,10.32422 -100.968748,-0.0293 -28.792969,-9.11132 -44.53125,-30.20507 -44.958984,-48.30419 -0.269532,3.11425 -0.38086,6.25195 -0.38086,9.41894 0,2.59815 0.05859,5.13525 0.257813,7.69971 2.080078,15.01953 21.679687,30.75781 41.478515,38.82031 z M 89.474609,97.922363 c 11.988281,1.529297 43.722661,5.856447 68.279301,3.834967 49.60547,-4.092779 60.61523,-21.416021 60.61523,-32.660162 0,-3.082031 -1.66406,-7.576172 -3.33984,-10.198242 -4.41211,-5.827149 -9.39844,-11.214844 -14.8125,-16.086914 1.40625,1.529297 1.86914,3.46289 1.92773,4.643554 0.45703,7.661133 -12.07617,17.953125 -37.41211,26.370118 -15.79687,5.24414 -36.7207,10.259765 -62.63672,10.259765 -43.728513,0 -58.798825,-16.570312 -58.798825,-26.944336 0,-1.098632 -0.234375,-9.978515 9.914062,-18.392578 -9.28125,7.40625 -17.355468,16.256836 -23.894531,26.203125 -0.720703,1.177735 -1.125,2.53125 -1.125,4.145508 0,10.579102 25.910156,24.331055 61.283203,28.825195 z M 56.896484,41.546387 c 0.814453,11.381836 31.013672,20.346679 67.447266,19.426758 36.43945,-0.952149 64.3418,-11.416993 64.3418,-22.828125 0,-3.257813 -2.44922,-6.199219 -6.7793,-8.707032 -16.88672,-9.949219 -36.57422,-15.65332 -57.58594,-15.65332 -21.96679,0 -42.433591,6.228516 -59.812497,16.980469 -5.16211,3.287109 -7.869141,7.001953 -7.611329,10.78125 z" />
<path d="m 339.00788,168.06451 c -0.73242,-2.0625 -0.93757,-4.33599 -0.9903,-5.33209 l -0.0643,-41.28467 c 0,-19.83691 -14.03906,-26.897457 -27.16992,-26.897457 -10.40039,0 -19.88086,2.724609 -25.98633,6.796877 -1.1047,0.79244 -1.23337,1.97889 -0.64453,2.94141 l 4.83399,6.53906 c 1.18783,1.32611 2.37059,0.96446 3.60937,0.0439 4.76953,-2.9707 10.40625,-4.67578 16.14258,-4.67578 16.20117,0 15.72656,12.68555 15.72656,14.33496 0,0.84082 -0.50976,1.04883 -1.11914,1.03711 l -2.50195,-0.0527 c -12.56836,-0.46289 -44.4668,3.82031 -44.4668,29.10595 0,14.84766 12.38672,22.42383 23.92969,22.42383 11.19141,0 20.19141,-4.4414 24.70604,-9.9082 0.25131,-0.30431 0.5433,-0.006 0.54198,0.14648 -0.006,0.69141 0,2.26172 0.14648,3.62696 0.24797,3.34435 0.90216,4.38103 2.51367,4.52929 l 8.97657,0.006 c 1.16601,0 2.11523,-0.94336 2.11523,-2.06836 0,-0.36328 -0.29889,-1.31257 -0.29889,-1.31257 z m -13.96285,-29.40809 c -1.83398,12.9668 -8.21482,20.44336 -19.99803,22.37695 -8.29687,1.36524 -15.81445,-2.05078 -16.21875,-10.93359 -0.45117,-9.76172 10.89258,-17.95898 31.82813,-17.05859 0,0 1.54102,0.0898 2.57227,0.21679 2.35873,0.29046 2.36422,1.52506 1.81638,5.39844 z" />
<path d="m 370.77441,74.88916 -9.38379,0.717774 c -1.13085,0 -2.10351,0.966797 -2.10351,2.15039 l 0,15.735352 c 0,0.624023 -0.50977,1.12207 -1.13672,1.12207 l -11.35547,-0.01172 c -1.18945,0 -2.16211,0.966797 -2.16211,2.150391 l -0.0234,7.942383 c 0.0234,0.58887 0.26368,1.12793 0.67969,1.51172 0.42188,0.40137 0.97266,0.61231 1.55274,0.60059 l 11.32031,0 c 0.62109,0 1.13086,0.5039 1.13086,1.12207 l -0.006,37.92724 c 0,20.35547 15.32226,27.61524 28.76367,27.61524 0,0 1.58203,0.0293 2.80078,-0.0937 1.21875,-0.11133 2.13281,-0.96094 2.13281,-2.14453 l 0,-7.44727 c 0,-1.18359 -0.95049,-2.13286 -2.39055,-2.13286 -11.54296,0 -17.62497,-6.11721 -17.62497,-18.1758 l 0,-35.54832 c 0,-0.61817 0.50391,-1.12207 1.13086,-1.12207 l 18.09375,0 c 1.18945,0 2.15625,-0.9668 2.15625,-2.14746 l 0,-7.889654 c 0,-1.189453 -0.9668,-2.15625 -2.15625,-2.15625 l -18.04102,0 c -0.65625,0 -1.18359,-0.521484 -1.18359,-1.174804 l 0,-16.333008 c 0.041,-1.151368 -0.90203,-2.217774 -2.19434,-2.217774 z" />
<path d="m 439.06833,154.39744 c -3.71484,4.41797 -7.8047,7.39746 -13.74025,7.39746 -7.0371,0 -12.54492,-5.0625 -12.54492,-11.50781 0,-5.71875 2.44336,-9.12305 9.67969,-13.48828 0.50391,-0.29297 1.06641,-0.23438 1.41797,0.11719 l 15.09961,15.80273 c 0.55031,0.65375 0.30206,0.95007 0.0879,1.67871 z m -12.34567,-32.94527 c -0.4043,0.21972 -1.11621,0.13476 -1.43848,-0.20801 -2.22071,-2.42871 -4.90137,-6.35303 -4.90137,-9.15088 0,-4.75195 3.39844,-8.45215 8.39649,-8.45215 4.82226,0 7.42382,3.32813 7.42382,7.39161 0,4.75195 -4.37108,7.56885 -9.48046,10.41943 z m 42.77929,46.08495 -14.38476,-14.85353 c -0.42188,-0.3457 -0.59766,-1.05468 -0.20508,-1.62304 l 10.97461,-18.47656 c 0.24609,-0.49805 0.26953,-0.8711 0.26953,-1.03711 0,-1.16407 -0.94336,-2.11914 -2.11523,-2.11914 l -8.03907,0 c -0.81445,0 -1.52343,0.41992 -1.91601,1.0996 l -6.95508,12.01368 c -0.31641,0.45703 -1.00781,0.57422 -1.51172,0.23437 l -11.23242,-11.56055 c -0.35766,-0.67051 -0.0735,-0.90492 0.16699,-1.54785 6.41895,-3.75439 13.65527,-9.18017 13.65527,-18.75439 0,-10.98633 -7.88671,-18.360354 -19.62304,-18.360354 -11.50196,0 -20.22071,7.696284 -20.22071,19.180664 0,5.05957 2.10938,10.09277 6.64454,15.87744 0.0997,0.71924 -0.0469,0.98291 -0.27539,1.16455 -9.56836,5.43409 -14.39063,12.63526 -14.39063,21.4419 0,14.9414 12.49805,22.76367 24.86133,22.76367 8.47851,0 15.09375,-3.25781 21.52734,-10.65528 0.44531,-0.44824 1.14844,-0.44824 1.58203,-0.0146 l 7.82227,8.09765 c 0.51562,0.50977 1.05469,0.72071 1.61133,0.72071 l 10.21875,0.0117 c 1.17773,0 2.13867,-0.96094 2.13867,-2.12696 0,-0.55078 -0.22852,-1.08399 -0.60352,-1.47657 z" />
<path d="m 514.82419,163.78716 c 0,-0.83806 -0.62332,-2.2937 -2.61325,-2.12702 -11.54883,0 -17.40235,-6.12305 -17.40235,-18.18164 l 0,-35.54832 c 0,-0.61817 0.50977,-1.12207 1.13086,-1.12207 l 18.09375,0 c 1.19532,0 2.16797,-0.9668 2.16797,-2.14746 l 0,-7.889654 c 0,-1.189453 -0.97265,-2.15625 -2.16797,-2.15625 l -18.03515,0 c -0.66211,0 -1.18946,-0.521484 -1.18946,-1.174804 l 0,-16.333008 c 0,-1.673436 -1.40874,-2.287541 -2.30859,-2.217774 l -9.25781,0.717774 c -1.14258,0 -2.11524,0.966797 -2.11524,2.15039 l 0,15.735352 c 0,0.624023 -0.50976,1.12207 -1.125,1.12207 l -11.36718,-0.01172 c -1.1836,0 -2.1504,0.966797 -2.1504,2.150391 l -0.0176,7.942383 c -0.003,1.24818 1.08217,2.11231 2.2207,2.11231 l 11.32031,0 c 0.61524,0 1.125,0.5039 1.125,1.12207 l 0,37.92724 c 0,20.35547 15.32227,27.61524 28.75782,27.61524 0,0 1.59375,0.0293 2.8125,-0.0937 1.21289,-0.11133 2.12109,-0.96094 2.12109,-2.14453 l 0,-7.44727 z" />
</svg> 