<?xml version="1.0" encoding="utf-8"?>
<!-- Generator: Adobe Illustrator 13.0.0, SVG Export Plug-In . SVG Version: 6.00 Build 14948)  -->
<!DOCTYPE svg PUBLIC "-//W3C//DTD SVG 1.1//EN" "http://www.w3.org/Graphics/SVG/1.1/DTD/svg11.dtd">
<svg version="1.1" id="Layer_1" xmlns="http://www.w3.org/2000/svg" xmlns:xlink="http://www.w3.org/1999/xlink" x="0px" y="0px"
	 width="782.5px" height="310px" viewBox="9.5 141.5 782.5 310" enable-background="new 9.5 141.5 782.5 310" xml:space="preserve">
<g>
	<g>
		<path fill="#0066B3" d="M343.997,320.82c0,2.301,2.671,4.978,4.969,4.978l34.052-0.021l-7.623-12.271h-19.724v-47.204h-11.67
			L343.997,320.82z"/>
		<path fill="#0066B3" d="M219.105,297.465c0-28.394-23.021-51.415-51.417-51.415s-51.415,23.021-51.415,51.415
			c0,28.396,23.019,51.417,51.415,51.417c3.019,0,5.889-0.28,8.765-0.778l-0.087,20.01h14.46v-24.896
			C207.526,334.719,219.105,317.48,219.105,297.465z M190.826,321.457v-16.555l-14.46,4.129l0.016,20.52
			c-2.775,0.754-5.68,1.221-8.693,1.221c-18.394,0-33.305-14.912-33.305-33.306c0-18.391,14.911-33.302,33.305-33.302
			s33.305,14.911,33.305,33.302C200.993,306.879,197.097,315.393,190.826,321.457z"/>
		<path fill="#0066B3" d="M266.534,325.805h-33.599c-2.301,0-5.007-2.668-5.007-4.969l-0.024-54.534h11.672v47.204h20.244v-47.204
			h11.672l0.011,54.534C271.504,323.137,268.835,325.805,266.534,325.805z"/>
		<g>
			<path fill="#0066B3" d="M423.251,268.497c-4.665-2.733-10.135-4.31-15.934-4.31c-17.425,0-31.552,14.126-31.552,31.55
				c0,17.429,14.127,31.556,31.552,31.556c5.442,0,10.648-1.421,15.123-3.85l-5.693-10.245c-2.81,1.526-6.006,2.405-9.43,2.405
				c-10.974,0-19.868-8.895-19.868-19.867c0-10.97,8.895-19.864,19.868-19.864c3.705,0,7.188,1.049,10.155,2.817L423.251,268.497z"
				/>
		</g>
		<path fill="#0066B3" d="M450.279,264.354c-17.423,0-31.523,14.206-31.523,31.632c0,17.424,14.102,31.466,31.523,31.466
			c17.43,0,31.556-14.127,31.556-31.548C481.835,278.478,467.709,264.354,450.279,264.354z M450.279,315.77
			c-10.968,0-19.84-8.815-19.84-19.783c0-10.97,8.872-19.946,19.84-19.946c10.973,0,19.873,8.895,19.873,19.864
			C470.152,306.874,461.252,315.77,450.279,315.77z"/>
		<path fill="#0066B3" d="M313.531,266.406h-11.566l-26.029,59.08h12.393l6.114-13.02l26.981,0.006l0.551,1.25l5.192,11.764h12.393
			L313.531,266.406z M298.344,302.779l9.385-21.349l9.42,21.349H298.344z"/>
		<path fill="#0066B3" d="M669.551,318.488l-21.373-49.318c-1.276-2.377-3.472-3.475-6.578-3.475c-3.101,0-5.295,1.097-6.571,3.475
			l-15.712,36.165l-15.711-36.165c-1.272-2.377-3.468-3.475-6.573-3.475c-3.106,0-5.301,1.097-6.578,3.475l-15.712,36.249
			l-15.706-36.249c-1.277-2.377-3.472-3.475-6.572-3.475c-3.105,0-5.301,1.097-6.578,3.475l-15.712,36.165l-15.706-36.165
			c-1.282-2.377-3.473-3.475-6.578-3.475s-5.296,1.097-6.577,3.475l-21.373,49.318c-2.941,7.718,7.676,11.688,11.143,5.479
			l16.809-39.275l16.804,39.275c2.194,4.019,8.953,3.839,10.963,0l16.809-39.275l16.804,39.275c1.103,1.974,2.926,2.82,4.803,2.942
			c0.232,0.037,0.445,0.048,0.673,0.059c0.233-0.011,0.451-0.021,0.679-0.059c1.877-0.122,3.705-0.971,4.809-2.942l16.804-39.275
			l16.804,39.275c2.009,3.839,8.768,4.019,10.956,0l16.81-39.275l16.804,39.275C661.881,330.177,672.487,326.206,669.551,318.488z"
			/>
	</g>
	<path fill="#0066B3" d="M668.878,266.809c-3.796,0-7.008,2.921-7.008,6.88c0,3.997,3.212,6.917,7.008,6.917
		c3.758,0,6.976-2.921,6.976-6.917C675.854,269.729,672.636,266.809,668.878,266.809z M668.878,279.456
		c-3.159,0-5.619-2.443-5.619-5.767c0-3.265,2.46-5.73,5.619-5.73c3.122,0,5.587,2.465,5.587,5.73
		C674.465,277.013,672,279.456,668.878,279.456z M672.053,271.993c0-1.569-0.928-2.263-2.81-2.263h-3.026v7.956h1.198v-3.448h1.389
		l2.1,3.448h1.352l-2.263-3.504C671.157,274.036,672.053,273.416,672.053,271.993z M667.415,273.214v-2.462h1.644
		c0.843,0,1.732,0.183,1.732,1.169c0,1.222-0.906,1.293-1.936,1.293H667.415z"/>
</g>
</svg>
