<?xml version="1.0" encoding="UTF-8" standalone="no"?>
<!-- Created with Inkscape (http://www.inkscape.org/) -->
<svg
   xmlns:svg="http://www.w3.org/2000/svg"
   xmlns="http://www.w3.org/2000/svg"
   version="1.0"
   width="200"
   height="40"
   id="svg2440">
  <defs
     id="defs2443" />
  <path
     d="M 13.163636,39.800796 C 7.199436,38.637329 3.1889026,34.444316 2.183819,28.321329 C 1.0334625,21.313289 5.3915986,14.572409 12.198321,12.831542 C 15.124761,12.083089 19.398655,12.423049 21.677311,13.585529 C 22.103669,13.803049 22.49912,13.981009 22.556081,13.981009 C 22.613043,13.981009 22.659635,10.914582 22.659635,7.1666909 L 22.659635,0.35237229 L 26.448448,0.40437694 L 30.237261,0.45639534 L 30.286255,17.478316 L 30.335252,34.500222 L 29.327088,35.010662 C 28.772587,35.291369 27.475408,36.033302 26.444511,36.659302 C 24.085115,38.092102 21.772739,39.167662 20.165761,39.579689 C 18.458303,40.017516 14.857544,40.131209 13.163636,39.800796 z M 19.09696,32.316676 C 21.386303,31.196622 22.704544,28.947902 22.704544,26.162756 C 22.704544,23.204196 21.213763,20.875929 18.721023,19.941382 C 17.159903,19.356142 14.563491,19.423436 13.222167,20.083969 C 12.015112,20.678396 10.892899,21.836729 10.244115,23.157862 C 9.768596,24.126182 9.710552,24.453062 9.710552,26.162756 C 9.710552,27.828356 9.7763066,28.221342 10.209549,29.144996 C 11.096239,31.035462 12.229437,32.021356 14.314677,32.716542 C 15.522489,33.119222 17.855356,32.924142 19.09696,32.316676 z M 45.968009,39.796996 C 40.366711,38.687982 36.503484,34.996676 35.014593,29.330902 C 34.600689,27.755902 34.650152,24.563969 35.116544,22.750582 C 36.383484,17.824529 40.124249,14.079262 45.030729,12.824382 C 46.868489,12.354369 50.550309,12.311156 52.362429,12.738342 C 56.3647,13.681876 59.764745,16.386036 61.501559,20.006982 C 62.531265,22.153676 62.945719,23.963756 62.945719,26.313822 C 62.945719,30.363049 61.006679,34.514542 57.98302,36.938796 C 56.705289,37.963236 54.293549,39.172622 52.68238,39.596822 C 51.064549,40.022729 47.626049,40.125249 45.968009,39.796996 z M 51.673289,32.340982 C 55.65562,30.485702 56.69468,24.867409 53.67388,21.523742 C 51.285429,18.880043 46.5941,18.818462 44.107624,21.398182 C 43.717489,21.802942 43.156352,22.652102 42.860685,23.285182 C 42.387835,24.297582 42.32394,24.655702 42.329963,26.258676 C 42.336032,27.862636 42.402453,28.216582 42.883984,29.210662 C 43.771845,31.043676 45.28114,32.301089 47.164029,32.776462 C 48.366169,33.080022 50.53702,32.870342 51.673289,32.340982 z M 103.71155,39.800862 C 98.571172,38.797889 94.741399,35.465516 93.092905,30.561356 C 91.077092,24.564516 93.636745,17.530182 98.983671,14.372289 C 101.22645,13.047649 102.94187,12.582516 105.91751,12.491956 C 109.18675,12.392446 110.73888,12.694062 113.19309,13.905702 C 114.65268,14.626462 115.30311,15.098489 116.56919,16.356049 C 119.19413,18.963876 120.45151,21.792196 120.63839,25.509982 C 120.96713,32.046089 116.93129,37.730116 110.71056,39.492342 C 108.86061,40.016342 105.56109,40.161742 103.71155,39.800862 z M 109.2526,32.427076 C 110.56727,31.845516 111.91967,30.473836 112.54744,29.085289 C 113.27504,27.476009 113.31131,25.206702 112.63699,23.482956 C 112.03107,21.933716 110.60933,20.515556 109.09296,19.948249 C 107.93511,19.515081 105.98841,19.380156 104.85261,19.654409 C 102.77672,20.155689 100.9684,21.891529 100.32895,23.996449 C 99.144252,27.896916 101.05971,31.675262 104.75287,32.723049 C 105.93597,33.058668 108.15465,32.912742 109.2526,32.427076 z M 181.02223,39.796996 C 178.08076,39.214622 175.79747,38.022542 173.82827,36.041449 C 172.17575,34.378502 171.31367,33.017849 170.50669,30.798636 C 170.02711,29.480102 169.92276,28.862596 169.84556,26.897409 C 169.73172,23.983676 170.07095,22.300329 171.24244,19.963996 C 173.71151,15.040289 178.08173,12.442036 183.88251,12.449156 C 188.38781,12.454662 191.50567,13.751422 194.35893,16.806409 C 196.74124,19.357582 198,22.644089 198,26.313822 C 198,30.379702 196.07327,34.504556 193.03723,36.938796 C 191.75943,37.963236 189.34764,39.172622 187.7368,39.596822 C 186.11876,40.022729 182.68051,40.125249 181.02223,39.796996 z M 186.72755,32.338036 C 192.51675,29.624316 191.27676,20.388636 185.01487,19.581702 C 181.78245,19.165102 179.2132,20.505302 177.91507,23.285182 C 177.44467,24.292329 177.37731,24.663999 177.37731,26.258676 C 177.37731,27.880422 177.43849,28.205676 177.93263,29.211822 C 178.83607,31.051742 180.33916,32.302062 182.21824,32.776462 C 183.42519,33.081156 185.59172,32.870502 186.72755,32.338036 z M 77.861945,39.488982 C 73.977772,38.835129 70.446732,36.491822 68.543412,33.304836 C 66.222799,29.419102 66.073425,24.005476 68.171692,19.832102 C 69.83063,16.532476 72.751305,14.251849 76.685545,13.184022 C 78.005239,12.825796 78.859825,12.762649 83.424492,12.685822 L 88.652092,12.597862 L 88.652092,16.167022 L 88.652092,19.736182 L 84.863279,19.737262 C 80.625399,19.738522 79.299305,19.894409 77.838852,20.563036 C 76.440145,21.203369 75.520759,22.072702 74.895345,23.346262 C 74.423319,24.307462 74.360223,24.651449 74.361039,26.258676 C 74.361865,27.862262 74.423212,28.196342 74.872012,29.040342 C 75.553492,30.321862 76.608412,31.303556 78.005052,31.955836 C 79.154025,32.492436 79.164625,32.493542 83.904065,32.556142 L 88.652092,32.618862 L 88.652092,36.153129 L 88.652092,39.68738 L 83.712239,39.664796 C 80.995319,39.652382 78.362679,39.573289 77.861945,39.488982 z M 124.96023,30.431156 C 125.02727,22.320182 125.07827,21.032529 125.37328,20.023929 C 126.46173,16.303196 129.18027,13.689036 132.97175,12.717769 C 133.911,12.477102 134.77833,12.424689 136.69881,12.492422 C 139.65127,12.596622 141.36691,13.071049 143.78235,14.451129 L 145.29389,15.314782 L 145.84211,14.924409 C 146.78771,14.251129 149.54459,13.043622 150.82603,12.741596 C 152.47859,12.352102 156.06471,12.356782 157.59044,12.750409 C 160.39207,13.473196 162.83439,15.355022 164.09731,17.763689 C 165.36696,20.185676 165.38751,20.389236 165.38751,30.554769 L 165.38751,39.68738 L 161.64671,39.68738 L 157.90592,39.68738 L 157.90483,31.294449 C 157.90416,26.112996 157.82797,22.628502 157.70555,22.188076 C 157.22687,20.465076 155.7098,19.522996 153.41319,19.522996 C 151.89081,19.522996 150.83931,19.848996 150.06641,20.560636 C 149.09347,21.455969 149.08127,21.586342 149.08127,30.952542 L 149.08127,39.68738 L 145.24459,39.68738 L 141.40752,39.68738 L 141.40363,31.006662 C 141.39965,22.994756 141.37203,22.266889 141.04696,21.558636 C 140.38117,20.108742 139.23844,19.522996 137.0756,19.522996 C 134.86533,19.522996 133.33688,20.415422 132.80084,22.018889 C 132.65137,22.466582 132.58327,25.338262 132.58327,31.179169 L 132.58327,39.68738 L 128.73319,39.68738 L 124.88311,39.68738 L 124.96023,30.431156 z M 36.088344,4.6873575 L 36.088344,0.36047294 L 37.095489,0.36270734 L 38.102636,0.36494174 L 40.021029,3.0884522 L 41.939427,5.8119522 L 41.99266,3.0862202 L 42.045852,0.36047294 L 42.999807,0.36047294 L 43.953719,0.36047294 L 43.953719,4.6768495 L 43.953719,8.9932149 L 42.935448,8.9932149 L 41.91714,8.9932149 L 40.009888,6.2807842 L 38.102636,3.5683669 L 38.00672,6.2328306 L 37.910804,8.8972909 L 36.999573,8.9557655 L 36.088344,9.0142269 L 36.088344,4.6873575 z M 48.322469,5.5880802 L 48.270089,2.1829455 L 46.97516,2.1262255 L 45.68026,2.0695015 L 45.68026,1.2149947 L 45.68026,0.36047294 L 49.32518,0.36047294 L 52.97014,0.36047294 L 52.97014,1.2149947 L 52.97014,2.0695015 L 51.675201,2.1262255 L 50.3803,2.1829455 L 50.327929,5.5880802 L 50.275549,8.9932149 L 49.32518,8.9932149 L 48.37484,8.9932149 L 48.322469,5.5880802 z M 57.147049,5.5880802 L 57.09464,2.1829455 L 55.79974,2.1262255 L 54.50484,2.0695015 L 54.50484,1.2149947 L 54.50484,0.36047294 L 58.14976,0.36047294 L 61.79468,0.36047294 L 61.79468,1.2149947 L 61.79468,2.0695015 L 60.499785,2.1262255 L 59.204892,2.1829455 L 59.152505,5.5880802 L 59.100092,8.9932149 L 58.14976,8.9932149 L 57.199429,8.9932149 L 57.147049,5.5880802 z"
     id="path2451"
     style="fill:#be0031;fill-opacity:1" />
</svg>
