<?xml version="1.0" encoding="UTF-8" standalone="no"?>
<!-- Created with Inkscape (http://www.inkscape.org/) -->

<svg
   xmlns:dc="http://purl.org/dc/elements/1.1/"
   xmlns:cc="http://creativecommons.org/ns#"
   xmlns:rdf="http://www.w3.org/1999/02/22-rdf-syntax-ns#"
   xmlns:svg="http://www.w3.org/2000/svg"
   xmlns="http://www.w3.org/2000/svg"
   xmlns:sodipodi="http://sodipodi.sourceforge.net/DTD/sodipodi-0.dtd"
   xmlns:inkscape="http://www.inkscape.org/namespaces/inkscape"
   id="svg2"
   version="1.1"
   inkscape:version="0.47 r22583"
   width="200"
   height="200"
   sodipodi:docname="Mozilla_logo.png">
  <metadata
     id="metadata8">
    <rdf:RDF>
      <cc:Work
         rdf:about="">
        <dc:format>image/svg+xml</dc:format>
        <dc:type
           rdf:resource="http://purl.org/dc/dcmitype/StillImage" />
        <dc:title></dc:title>
      </cc:Work>
    </rdf:RDF>
  </metadata>
  <defs
     id="defs6">
    <inkscape:perspective
       sodipodi:type="inkscape:persp3d"
       inkscape:vp_x="0 : 0.5 : 1"
       inkscape:vp_y="0 : 1000 : 0"
       inkscape:vp_z="1 : 0.5 : 1"
       inkscape:persp3d-origin="0.5 : 0.33333333 : 1"
       id="perspective10" />
  </defs>
  <sodipodi:namedview
     pagecolor="#ffffff"
     bordercolor="#666666"
     borderopacity="1"
     objecttolerance="10"
     gridtolerance="10"
     guidetolerance="10"
     inkscape:pageopacity="0"
     inkscape:pageshadow="2"
     inkscape:window-width="1280"
     inkscape:window-height="968"
     id="namedview4"
     showgrid="false"
     inkscape:zoom="2.36"
     inkscape:cx="167.83622"
     inkscape:cy="101.67237"
     inkscape:window-x="-4"
     inkscape:window-y="-4"
     inkscape:window-maximized="1"
     inkscape:current-layer="svg2" />
  <g
     id="g2818">
    <path
       style="fill:#ec9e03"
       d="M 37.604952,199.16982 C 37.311667,198.69527 42.230573,181.95681 48.535853,161.97323 54.841134,141.98965 60,125.11512 60,124.47426 60,123.83341 46.733941,113.08603 30.519869,100.5912 14.305797,88.096361 0.77923975,77.451819 0.4608523,76.936658 0.10495515,76.360804 14.335767,76 37.404453,76 L 74.926941,76 87.065999,38.75 C 93.742481,18.2625 99.559331,1.1220878 99.992333,0.66019509 100.89139,-0.2988492 100.5489,-1.3082665 114.01875,42 c 5.55953,17.875 10.43409,32.831927 10.83236,33.237616 0.39827,0.405689 17.5822,0.855689 38.18651,1 L 200.5,76.5 170.27764,99.800763 c -16.62229,12.815417 -30.431,23.638367 -30.68602,24.050997 -0.25502,0.41263 2.89584,11.52728 7.00191,24.69924 12.51787,40.15639 15.59261,50.5962 15.05882,51.12999 -0.28153,0.28152 -14.28318,-9.91213 -31.11478,-22.65255 L 99.934656,153.86403 70.217328,176.25027 C 36.887789,201.35762 38.330466,200.34372 37.604952,199.16982 z M 87,109 c 0,-0.55 -0.476558,-1 -1.059017,-1 -0.582459,0 -0.780902,0.45 -0.440983,1 0.339919,0.55 0.816476,1 1.059017,1 C 86.801558,110 87,109.55 87,109 z m 3,-1 c 0,-0.55 -0.476558,-1 -1.059017,-1 -0.582459,0 -0.780902,0.45 -0.440983,1 0.339919,0.55 0.816476,1 1.059017,1 C 89.801558,109 90,108.55 90,108 z m 3,-2 c 0,-0.55 -0.476558,-1 -1.059017,-1 -0.582459,0 -0.780902,0.45 -0.440983,1 0.339919,0.55 0.816476,1 1.059017,1 C 92.801558,107 93,106.55 93,106 z M 99,85.940983 C 99,85.358524 98.55,85.160081 98,85.5 97.45,85.839919 97,86.316476 97,86.559017 97,86.801558 97.45,87 98,87 c 0.55,0 1,-0.476558 1,-1.059017 z M 103,84 c 0,-0.55 -0.45,-1 -1,-1 -0.55,0 -1,0.45 -1,1 0,0.55 0.45,1 1,1 0.55,0 1,-0.45 1,-1 z"
       id="path2824" />
    <path
       style="fill:#ed2700"
       d="M 38.516759,194.36117 C 39.328002,191.68753 44.646644,174.875 50.335964,157 c 5.689319,-17.875 10.167499,-32.83284 9.951512,-33.23964 -0.215988,-0.4068 -13.966364,-11.2068 -30.55639,-24.000001 L -0.43259865,76.5 37.385811,76 75.20422,75.5 87.410194,38.275249 C 94.12348,17.801637 99.85614,0.81052694 100.14944,0.51722793 100.44274,0.22392891 106.02298,17.087567 112.54998,37.991978 L 124.41726,76 l 37.3747,0 c 22.16947,0 37.2391,0.372134 37.04137,0.91471 -0.50983,1.399051 -58.92386,46.22845 -59.7904,45.88568 C 138.62527,122.63517 151.43399,112.375 167.50675,100 l 29.2232,-22.5 -36.86497,-0.262171 C 132.41617,77.042622 123,76.675147 123,75.799137 123,74.56346 101.04009,3.7522243 100.47166,3.1549775 100.29106,2.9652151 94.646356,19.497237 87.927884,39.892804 L 75.71248,76.975654 39.370899,77.237827 3.029318,77.5 31.595974,99.495516 c 15.711661,12.097534 28.956702,22.465494 29.433425,23.039904 0.51802,0.62418 -3.727909,15.51309 -10.552716,37.00449 -6.280716,19.77805 -11.432353,36.54091 -11.448083,37.25079 -0.01573,0.70989 13.388011,-8.85261 29.78609,-21.25 C 85.21277,163.14332 99.190965,153 99.877346,153 c 0.686384,0 14.339644,9.90513 30.340584,22.01139 16.00094,12.10627 29.27383,21.83019 29.49531,21.60871 0.22148,-0.22148 -4.60427,-16.47074 -10.72388,-36.10946 -6.11961,-19.63872 -10.91554,-35.91779 -10.65763,-36.17571 0.5461,-0.54609 -0.25753,-3.01425 12.75214,39.16507 5.59813,18.15 10.39255,33.5625 10.65427,34.25 0.26171,0.6875 -0.0479,1.25 -0.68811,1.25 -0.64018,0 -14.64767,-10.17374 -31.12776,-22.60831 L 99.958466,153.78339 70.3001,176.03216 c -16.312101,12.23682 -30.468357,22.46059 -31.458346,22.71947 -1.697557,0.44392 -1.71605,0.19409 -0.324995,-4.39046 z M 50.523934,180.75 C 52.049693,176.61438 68,122.43971 68,121.39314 68,120.69258 57.103911,111.43003 43.786468,100.8097 L 19.572936,81.5 50.135097,81.235767 80.697259,80.971534 90.08871,50.025848 C 95.254008,33.00572 99.761107,19.399625 100.10449,19.790081 100.44786,20.180536 103.51963,29.725 106.93063,41 c 3.41101,11.275 7.55496,24.881044 9.2088,30.235654 l 3.00696,9.735654 30.56823,0.264346 30.56822,0.264346 -24.39142,19.42307 c -13.41528,10.68269 -24.33718,19.90769 -24.27088,20.5 0.16755,1.49693 15.08152,51.48103 16.89014,56.60719 1.20549,3.41673 1.22752,4.08325 0.12092,3.65861 -0.74421,-0.28558 -11.59086,-8.46575 -24.10366,-18.17815 -12.51281,-9.7124 -23.32723,-17.88021 -24.03205,-18.15067 -0.70483,-0.27047 -12.017242,7.86273 -25.138698,18.07378 -13.121456,10.21104 -24.180569,18.56567 -24.575807,18.56585 -0.395239,1.8e-4 -0.511091,-0.56218 -0.257451,-1.24968 z M 107,134 c 0,-4.88889 -0.0667,-5 -3,-5 -2.82845,0 -2.99085,0.21444 -2.83996,3.75 0.15756,3.6921 0.16626,3.69982 0.56336,0.5 0.50701,-4.08556 2.2766,-4.27988 2.2766,-0.25 0,1.65 0.49814,3 1.10699,3 0.60884,0 0.84797,0.675 0.53138,1.5 -0.31658,0.825 -0.13972,1.5 0.39301,1.5 0.53274,0 0.96862,-2.25 0.96862,-5 z m -1.80505,-1.5 c -0.0204,-1.65 0.18706,-2.44606 0.46099,-1.76903 0.27392,0.67703 0.29059,2.02703 0.037,3 -0.25354,0.97297 -0.47766,0.41903 -0.49804,-1.23097 z m -31.187023,0 c 0.234696,3.21791 0.37319,3.46232 0.708327,1.25 C 74.945379,132.2375 75.523065,131 76,131 c 0.476935,0 1.054621,1.2375 1.283746,2.75 0.38774,2.55956 0.426966,2.52493 0.566422,-0.5 C 77.955687,130.96119 77.556376,130 76.5,130 c -0.825,0 -1.5,-0.45 -1.5,-1 0,-0.55 -0.675,-1 -1.5,-1 -1.120299,0 -1.464079,1.07582 -1.358095,4.25 l 0.141906,4.25 0.716189,-4 0.716189,-4 0.291738,4 z M 82,132 c 0,-2.88889 -0.416667,-4 -1.5,-4 -1.083333,0 -1.5,1.11111 -1.5,4 0,2.88889 0.416667,4 1.5,4 1.083333,0 1.5,-1.11111 1.5,-4 z m -1.767997,0 c 0,-1.925 0.205795,-2.7125 0.457323,-1.75 0.251527,0.9625 0.251527,2.5375 0,3.5 -0.251528,0.9625 -0.457323,0.175 -0.457323,-1.75 z m 4.612999,0 c 0.12981,-2.2 -0.127331,-4 -0.571424,-4 -0.444093,0 -0.854639,1.8 -0.912325,4 -0.05769,2.2 0.199454,4 0.571423,4 0.37197,0 0.782516,-1.8 0.912326,-4 z m 1.842078,-1.76166 c -0.250292,-0.95609 -0.445996,0.0617 -0.434897,2.26166 0.0111,2.2 0.215885,2.98225 0.455078,1.73834 0.239193,-1.24391 0.230112,-3.04391 -0.02018,-4 z M 90,131.5 c 0,-2.475 -0.45,-4.5 -1,-4.5 -0.55,0 -1,2.025 -1,4.5 0,2.475 0.45,4.5 1,4.5 0.55,0 1,-2.025 1,-4.5 z m 4,1 c 0,-1.925 -0.476558,-3.5 -1.059017,-3.5 -0.582459,0 -0.780902,0.45 -0.440983,1 0.339919,0.55 0.141476,1 -0.440983,1 C 91.476558,131 91,132.125 91,133.5 c 0,1.55556 0.566667,2.5 1.5,2.5 1.047619,0 1.5,-1.05556 1.5,-3.5 z m -1.921053,1.08333 c -0.04342,-1.05416 0.192928,-1.64479 0.52522,-1.3125 0.332291,0.33229 0.367818,1.19479 0.07895,1.91667 -0.319226,0.79773 -0.556183,0.56078 -0.604167,-0.60417 z M 100,132.5 c 0,-2.44444 -0.452381,-3.5 -1.5,-3.5 -1.047619,0 -1.5,1.05556 -1.5,3.5 0,2.44444 0.452381,3.5 1.5,3.5 1.047619,0 1.5,-1.05556 1.5,-3.5 z m -1.805051,0 c -0.02038,-1.65 0.187065,-2.44606 0.460988,-1.76903 0.273923,0.67703 0.290597,2.02703 0.03705,3 -0.25354,0.97297 -0.477659,0.41903 -0.498038,-1.23097 z M 74.5,112 c -0.339919,-0.55 -0.816476,-1 -1.059017,-1 C 73.198442,111 73,111.45 73,112 c 0,0.55 0.476558,1 1.059017,1 0.582459,0 0.780902,-0.45 0.440983,-1 z m 6.5,-1 c 0,-0.55 -0.476558,-1 -1.059017,-1 -0.582459,0 -0.780902,0.45 -0.440983,1 0.339919,0.55 0.816476,1 1.059017,1 C 80.801558,112 81,111.55 81,111 z m 6,-2 c 0,-0.55 -0.476558,-1 -1.059017,-1 -0.582459,0 -0.780902,0.45 -0.440983,1 0.339919,0.55 0.816476,1 1.059017,1 C 86.801558,110 87,109.55 87,109 z m 3,-1 c 0,-0.55 -0.476558,-1 -1.059017,-1 -0.582459,0 -0.780902,0.45 -0.440983,1 0.339919,0.55 0.816476,1 1.059017,1 C 89.801558,109 90,108.55 90,108 z m 3,-2 c 0,-0.55 -0.476558,-1 -1.059017,-1 -0.582459,0 -0.780902,0.45 -0.440983,1 0.339919,0.55 0.816476,1 1.059017,1 C 92.801558,107 93,106.55 93,106 z M 99,85.940983 C 99,85.358524 98.55,85.160081 98,85.5 97.45,85.839919 97,86.316476 97,86.559017 97,86.801558 97.45,87 98,87 c 0.55,0 1,-0.476558 1,-1.059017 z M 103,84 c 0,-0.55 -0.45,-1 -1,-1 -0.55,0 -1,0.45 -1,1 0,0.55 0.45,1 1,1 0.55,0 1,-0.45 1,-1 z"
       id="path2822" />
    <path
       style="fill:#1b0f07"
       d="M 38.516759,194.36117 C 39.328002,191.68753 44.646644,174.875 50.335964,157 c 5.689319,-17.875 10.167499,-32.83284 9.951512,-33.23964 -0.215988,-0.4068 -13.966364,-11.2068 -30.55639,-24.000001 L -0.43259865,76.5 37.385811,76 75.20422,75.5 87.410194,38.275249 C 94.12348,17.801637 99.85614,0.81052694 100.14944,0.51722793 100.44274,0.22392891 106.02298,17.087567 112.54998,37.991978 L 124.41726,76 l 37.3747,0 c 22.16947,0 37.2391,0.372134 37.04137,0.91471 C 198.34161,78.264075 140.11929,123 138.85486,123 c -0.59292,0 12.24212,-10.2375 28.5223,-22.75 L 196.9775,77.5 160.28511,77 123.59272,76.5 112.48008,41 C 106.36813,21.475 101.12486,4.825 100.82837,4 100.53189,3.175 94.759523,19.257022 88.000895,39.737827 L 75.71248,76.975654 39.278013,77.237827 2.8435468,77.5 32.490471,100.34979 c 16.305808,12.56738 29.450274,23.36738 29.209925,24 C 60.185926,128.33599 39,196.10888 39,196.9674 c 0,0.582 13.492336,-9.07258 29.98297,-21.45461 C 85.473603,163.13075 99.414717,153 99.963223,153 c 0.548507,0 14.120197,9.91097 30.159317,22.02438 16.03912,12.11341 29.36067,21.82574 29.60345,21.58296 0.24278,-0.24278 -4.56476,-16.51023 -10.68344,-36.14989 -6.11867,-19.63966 -10.92619,-35.90715 -10.68337,-36.14997 0.5156,-0.51559 -0.2517,-2.87887 12.72469,39.19252 5.59813,18.15 10.39255,33.5625 10.65427,34.25 0.26171,0.6875 -0.0479,1.25 -0.68811,1.25 -0.64018,0 -14.64767,-10.17374 -31.12776,-22.60831 L 99.958466,153.78339 70.3001,176.03216 c -16.312101,12.23682 -30.468357,22.46059 -31.458346,22.71947 -1.697557,0.44392 -1.71605,0.19409 -0.324995,-4.39046 z M 59.145172,152.40404 C 64.015328,136.08783 68,122.11442 68,121.35202 c 0,-0.7624 -10.86963,-10.041 -24.154733,-20.6191 L 19.690534,81.5 50.205361,81.23575 80.720188,80.971501 89.507986,52.23575 C 94.341275,36.431088 98.623775,22.375 99.024654,21 c 0.91332,-3.132658 0.263385,-4.879718 9.486416,25.5 4.17439,13.75 8.27612,27.131046 9.11497,29.735657 l 1.52517,4.735658 30.47315,0.264342 L 180.09751,81.5 156.85186,100 c -12.78511,10.175 -23.82629,18.95 -24.53596,19.5 -1.02245,0.7924 0.57821,7.21973 7.71025,30.95991 4.95032,16.47796 8.88206,30.30583 8.73721,30.72862 -0.14485,0.42278 -11.01103,-7.54668 -24.14707,-17.70992 C 111.48024,153.31538 100.32173,145 99.819586,145 c -0.502142,0 -11.467881,8.2125 -24.368309,18.25 -12.900428,10.0375 -23.839085,18.37822 -24.308128,18.53494 -0.469042,0.15672 3.131868,-13.06468 8.002023,-29.3809 z m 20.512788,2.25927 C 90.194838,146.59849 99.344105,140 99.989663,140 c 0.645557,0 3.156897,1.62504 5.580747,3.61121 4.64237,3.80407 4.77365,3.75615 5.78396,-2.11121 0.58353,-3.38888 -1.79437,-13.90111 -3.87615,-17.1357 -0.756,-1.17463 -3.35914,-3.09643 -5.78477,-4.27065 -4.323095,-2.09278 -4.549072,-2.10163 -11.437916,-0.44831 -6.924583,1.6619 -7.081548,1.65487 -10.698772,-0.47935 C 77.537667,117.9747 74.985933,117 73.886242,117 c -1.443419,0 -2.624756,-1.4169 -4.248082,-5.09518 -1.887002,-4.27574 -2.135425,-6.0554 -1.544662,-11.06571 C 68.900893,93.991525 69.497651,93.366697 79,89.419589 87.646806,85.827859 91.984848,82.90138 91.993167,80.654292 92.01445,74.905352 98.177608,70.636086 104.5,71.990713 c 1.65,0.353527 3.95905,0.387741 5.13123,0.07603 2.09104,-0.556056 2.0281,-0.906232 -3.33677,-18.566745 -3.00741,-9.9 -5.77546,-18.323998 -6.15123,-18.719996 -0.375772,-0.395998 -4.015485,10.404002 -8.088252,24 C 87.982211,72.376002 84.223609,84.0625 83.702529,84.75 82.988211,85.692453 76.491826,86 57.298468,86 l -25.456643,0 19.829087,15.55915 c 10.905999,8.55753 20.229207,16.13211 20.718241,16.83238 0.571363,0.81817 -1.667859,9.89582 -6.265189,25.39864 -3.934887,13.26898 -7.45676,24.93191 -7.826383,25.91762 -0.539019,1.43746 -0.387558,1.57711 0.765188,0.70552 0.790477,-0.59767 10.058313,-7.68517 20.595191,-15.75 z M 142,170.16052 c 0,-0.46172 -1.06416,-1.32435 -2.36479,-1.91696 -1.87889,-0.85608 -2.47043,-2.07053 -2.87892,-5.91052 -0.28277,-2.65817 -0.87008,-5.69436 -1.30515,-6.74708 -0.60322,-1.45962 -0.47291,-1.71745 0.54886,-1.08596 0.93132,0.57559 1.17516,0.39691 0.79969,-0.58596 -0.2971,-0.77772 -2.41808,-7.71404 -4.71328,-15.41404 -2.2952,-7.7 -4.58005,-15.23712 -5.07744,-16.74915 -0.84947,-2.58234 -0.46761,-3.09483 6.29335,-8.44641 8.35568,-6.61387 8.46404,-6.74354 9.31053,-11.14117 0.46299,-2.405324 0.18796,-3.791029 -0.98529,-4.964281 C 140.12415,95.695575 140,95.70219 140,97.285714 c 0,0.942857 -0.3375,1.712852 -0.75,1.7111 -0.4125,-0.0018 -0.75959,-1.948684 -0.77132,-4.326516 -0.0118,-2.401536 -0.79999,-5.511738 -1.77305,-6.996814 C 135.19519,85.368267 134.26833,85 129.97695,85 126.21966,85 125,85.367593 125,86.5 c 0,0.825 -0.45,1.5 -1,1.5 -0.55,0 -1,-0.647836 -1,-1.439635 0,-0.93908 -1.29283,-1.547547 -3.71827,-1.75 -3.18762,-0.266071 -3.84363,-0.750259 -4.59656,-3.392644 -0.79462,-2.788655 -1.53358,-3.25224 -7.75714,-4.866423 C 100.32115,74.837696 97,74.930909 97,76.829943 c 0,0.490992 1.076167,0.686991 2.391481,0.435553 C 101.86568,76.792522 113.95936,80.923099 113.98532,82.25 113.9934,82.6625 112.875,83 111.5,83 c -1.375,0 -2.5,0.363992 -2.5,0.80887 0,0.444879 -0.70566,1.682379 -1.56813,2.75 -1.50247,1.859858 -1.54386,1.827269 -0.98861,-0.778352 0.46144,-2.165344 0.0614,-3.058952 -1.96308,-4.385459 -1.39843,-0.916287 -2.81796,-1.390612 -3.15452,-1.054056 -0.33655,0.336556 0.12749,0.895657 1.03121,1.242447 2.01479,0.773146 2.1445,3.75556 0.23236,5.342496 -0.77592,0.643959 -3.07777,1.441352 -5.115215,1.771984 -3.565488,0.578599 -3.660475,0.518991 -2.532265,-1.589089 1.090094,-2.036858 0.80054,-1.981769 -4.134785,0.786664 -2.918831,1.637296 -7.894465,3.937942 -11.056965,5.112547 -5.916407,2.197452 -6.436608,2.840492 -4.788747,5.919549 0.674466,1.260249 0.534781,2.359439 -0.468196,3.684259 -1.392437,1.83925 -1.43067,1.83635 -1.476566,-0.11186 -0.03912,-1.66041 -0.21171,-1.74531 -1.016491,-0.5 -1.154817,1.78695 -1.248182,4.06183 -0.232234,5.65848 1.170462,1.83948 10.90579,-0.3407 17.232234,-3.85908 3.025,-1.68231 8.2,-5.16344 11.5,-7.735833 7.73832,-6.032121 10.7035,-7.282562 7.09228,-2.990869 -2.60592,3.096957 -3.42066,7.297302 -1.63011,8.403922 0.5292,0.32706 1.35034,-0.88388 1.82476,-2.690981 0.82351,-3.136782 0.88474,-3.172373 1.35138,-0.785572 0.85374,4.366723 -0.97741,8.931103 -4.42677,11.034283 -4.05492,2.47241 -5.057612,2.48081 -3.74672,0.0314 1.63224,-3.04988 1.23288,-3.36641 -1.51764,-1.20285 -1.404051,1.10443 -6.132135,3.20007 -10.506853,4.65698 C 81.145696,115.11572 79.424343,117 84.847575,117 c 1.501248,0 4.456359,-0.88038 6.566913,-1.9564 3.625637,-1.84846 4.196298,-1.87317 10.342332,-0.44781 7.49936,1.73922 10.97184,0.99641 15.46481,-3.30812 1.5281,-1.46402 2.77837,-2.19518 2.77837,-1.6248 0,1.67459 -5.90325,9.33713 -7.19336,9.33713 -0.64945,0 0.0284,1.26212 1.50627,2.80472 3.15421,3.29229 3.47993,4.68996 0.75283,3.23046 -2.70495,-1.44764 -2.77162,-1.39131 -2.28418,1.92986 l 0.43518,2.96504 3.94079,-2.01044 3.94079,-2.01045 -1.48322,2.86824 c -0.81578,1.57753 -2.18294,3.44895 -3.03815,4.15871 -2.47432,2.0535 -0.68358,3.36375 2.10241,1.53829 1.37179,-0.89883 2.64407,-1.48433 2.82728,-1.30112 0.18321,0.18321 -1.00477,2.29522 -2.63997,4.69336 -1.6352,2.39813 -2.81107,4.52227 -2.61304,4.7203 0.19804,0.19803 2.05698,-0.79303 4.13099,-2.20235 2.074,-1.40933 3.95584,-2.37749 4.18185,-2.15148 0.22601,0.22601 -0.89881,2.47618 -2.49961,5.00038 -1.6008,2.5242 -2.65168,4.84832 -2.33529,5.16471 0.31639,0.3164 2.12192,-0.38063 4.01229,-1.54895 l 3.43704,-2.1242 -2.08341,4.08383 c -1.14588,2.24611 -2.79002,4.47927 -3.65364,4.96258 -1.40441,0.78594 -1.38489,1.0292 0.18492,2.30362 0.97482,0.7914 1.43506,0.89146 1.03518,0.22506 -0.42295,-0.70484 0.11078,-1.64443 1.29376,-2.27754 1.84407,-0.98691 1.93583,-0.87282 1.08915,1.35411 -0.85147,2.23955 -0.24564,2.95329 7.66267,9.02754 9.02343,6.93075 9.29047,7.0962 9.29047,5.75624 z M 124,113.6198 c 0,-0.37959 0.76282,-1.85438 1.69516,-3.2773 l 1.69515,-2.58714 -3.27106,0.71845 -3.27106,0.71844 3.16374,-4.34612 c 2.59682,-3.56732 3.07546,-5.018115 2.67106,-8.09613 -0.61444,-4.676771 -0.007,-4.76858 1.86804,-0.282119 1.5262,3.652719 1.9293,11.336649 0.68366,13.032119 C 127.97218,111.21843 124,114.34461 124,113.6198 z M 112.41026,91.373252 c 0.34334,-0.894712 0.16093,-2.185006 -0.40534,-2.867322 -1.47869,-1.781719 1.59252,-4.308491 3.23746,-2.663548 0.63669,0.63669 2.01576,1.157618 3.06461,1.157618 1.28426,0 1.71902,0.489827 1.33138,1.5 -0.32653,0.850929 -0.0228,1.5 0.70189,1.5 0.70261,0 2.15099,0.660688 3.21861,1.468197 1.76849,1.337619 1.33129,1.471025 -4.91586,1.5 -5.92902,0.0275 -6.77251,-0.188347 -6.23275,-1.594945 z m -15.400089,-0.01626 c 0.0056,-0.471344 1.802934,-1.609935 3.994089,-2.530203 3.87894,-1.629122 3.9568,-1.622534 2.95465,0.25 C 103.39281,90.134554 102.30727,91 101.5466,91 c -0.76066,0 -2.094829,0.273145 -2.964813,0.606989 -0.869983,0.333844 -1.57721,0.221344 -1.571616,-0.25 z M 74.5,112 c -0.339919,-0.55 -0.816476,-1 -1.059017,-1 C 73.198442,111 73,111.45 73,112 c 0,0.55 0.476558,1 1.059017,1 0.582459,0 0.780902,-0.45 0.440983,-1 z m 6.5,-1 c 0,-0.55 -0.476558,-1 -1.059017,-1 -0.582459,0 -0.780902,0.45 -0.440983,1 0.339919,0.55 0.816476,1 1.059017,1 C 80.801558,112 81,111.55 81,111 z m 6,-2 c 0,-0.55 -0.476558,-1 -1.059017,-1 -0.582459,0 -0.780902,0.45 -0.440983,1 0.339919,0.55 0.816476,1 1.059017,1 C 86.801558,110 87,109.55 87,109 z m 3,-1 c 0,-0.55 -0.476558,-1 -1.059017,-1 -0.582459,0 -0.780902,0.45 -0.440983,1 0.339919,0.55 0.816476,1 1.059017,1 C 89.801558,109 90,108.55 90,108 z m 3,-2 c 0,-0.55 -0.476558,-1 -1.059017,-1 -0.582459,0 -0.780902,0.45 -0.440983,1 0.339919,0.55 0.816476,1 1.059017,1 C 92.801558,107 93,106.55 93,106 z m 75,-20.612639 c 0,-0.213048 -3.9375,-0.380666 -8.75,-0.372484 l -8.75,0.01488 4,3.391951 c 4.21837,3.577127 4.38948,5.229205 0.38869,3.752699 -1.31378,-0.484853 -3.62997,-1.181967 -5.1471,-1.54914 -2.69609,-0.652507 -2.67457,-0.590765 0.95242,2.733129 l 3.71083,3.400718 6.79758,-5.492195 C 164.94109,88.24621 168,85.60041 168,85.387361 z M 99,85.940983 C 99,85.358524 98.55,85.160081 98,85.5 97.45,85.839919 97,86.316476 97,86.559017 97,86.801558 97.45,87 98,87 c 0.55,0 1,-0.476558 1,-1.059017 z M 103,84 c 0,-0.55 -0.45,-1 -1,-1 -0.55,0 -1,0.45 -1,1 0,0.55 0.45,1 1,1 0.55,0 1,-0.45 1,-1 z"
       id="path2820" />
  </g>
</svg>
