<?xml version="1.0" encoding="UTF-8" standalone="no"?>
<!-- Created with Inkscape (http://www.inkscape.org/) -->
<svg
   xmlns:svg="http://www.w3.org/2000/svg"
   xmlns="http://www.w3.org/2000/svg"
   version="1.0"
   width="171"
   height="43"
   viewBox="-0.106 -0.169 171 43"
   id="svg2"
   xml:space="preserve">
<defs
   id="defs4">
</defs>
<path
   d="M 105.274,27.303 L 102.315,27.303 L 102.315,33.369 C 102.315,34.304 102.352,34.929 102.433,35.254 C 102.514,35.573 102.652,35.914 102.909,36.108 C 103.165,36.301 103.483,36.415 103.775,36.415 C 104.351,36.415 105.122,35.99 105.547,35.321 L 105.718,35.423 C 105.466,35.962 105.087,36.468 104.567,36.814 C 104.103,37.123 103.566,37.184 103.065,37.184 C 102.486,37.184 101.976,37.01 101.535,36.665 C 101.096,36.315 100.82,35.907 100.713,35.443 C 100.603,34.98 100.552,34.159 100.552,32.991 L 100.552,27.303 L 99.094,27.303 L 99.094,26.802 C 99.77,26.784 100.374,26.503 100.907,25.955 C 101.445,25.407 101.785,24.641 101.933,23.648 L 102.316,23.648 L 102.316,26.777 L 105.275,26.777 L 105.275,27.303"
   style="fill:#f5821f"
   id="path6" />
<path
   d="M 115.16,30.26 L 108.144,30.26 C 108.11,30.744 108.091,31.103 108.091,31.336 C 108.091,33.09 108.371,34.41 108.929,35.287 C 109.482,36.171 110.311,36.612 111.412,36.612 C 112.909,36.612 114.258,35.943 114.885,34.606 L 115.159,34.606 C 114.896,35.429 114.376,36.074 113.596,36.534 C 112.815,36.999 111.966,37.231 111.049,37.231 C 110.195,37.231 109.386,37.016 108.63,36.588 C 107.872,36.165 107.249,35.562 106.766,34.78 C 106.282,34 106.041,33.052 106.041,31.94 C 106.041,30.365 106.508,29.051 107.44,28.006 C 108.377,26.963 109.547,26.443 110.947,26.443 C 112.268,26.443 113.29,26.843 114.011,27.65 C 114.736,28.454 115.119,29.325 115.16,30.26 M 113.021,29.736 C 113.048,29.548 113.06,29.381 113.06,29.234 C 113.06,28.514 112.846,27.956 112.425,27.562 C 111.999,27.166 111.479,26.97 110.865,26.97 C 109.372,26.97 108.48,27.891 108.193,29.736 L 113.021,29.736 L 113.021,29.736 z "
   style="fill:#f5821f"
   id="path8" />
<path
   d="M 130.132,30.26 L 123.114,30.26 C 123.083,30.744 123.066,31.103 123.066,31.336 C 123.066,33.09 123.343,34.41 123.901,35.287 C 124.454,36.171 125.281,36.612 126.386,36.612 C 127.882,36.612 129.229,35.943 129.857,34.606 L 130.131,34.606 C 129.867,35.429 129.348,36.074 128.568,36.534 C 127.788,36.999 126.939,37.231 126.022,37.231 C 125.168,37.231 124.361,37.016 123.604,36.588 C 122.845,36.165 122.222,35.562 121.74,34.78 C 121.255,34 121.014,33.052 121.014,31.94 C 121.014,30.365 121.478,29.051 122.416,28.006 C 123.349,26.963 124.517,26.443 125.924,26.443 C 127.241,26.443 128.265,26.843 128.986,27.65 C 129.708,28.454 130.091,29.325 130.132,30.26 M 127.992,29.736 C 128.017,29.548 128.03,29.381 128.03,29.234 C 128.03,28.514 127.816,27.956 127.394,27.562 C 126.973,27.166 126.454,26.97 125.836,26.97 C 124.342,26.97 123.449,27.891 123.162,29.736 L 127.992,29.736 L 127.992,29.736 z "
   style="fill:#f5821f"
   id="path10" />
<path
   d="M 140.35,34.366 L 140.588,34.366 C 140.031,36.275 138.647,37.231 136.427,37.231 C 134.999,37.231 133.799,36.748 132.823,35.783 C 131.845,34.815 131.362,33.534 131.362,31.941 C 131.362,30.306 131.888,28.983 132.939,27.968 C 133.989,26.95 135.235,26.444 136.671,26.444 C 137.533,26.444 138.33,26.629 139.056,27.007 C 139.781,27.379 140.145,27.838 140.145,28.378 C 140.145,28.579 140.081,28.768 139.944,28.946 C 139.81,29.123 139.617,29.211 139.365,29.211 C 138.829,29.211 138.499,28.901 138.379,28.276 C 138.28,27.811 138.131,27.479 137.929,27.294 C 137.716,27.107 137.309,27.016 136.696,27.016 C 135.605,27.016 134.789,27.399 134.239,28.156 C 133.691,28.916 133.414,30.054 133.414,31.583 C 133.414,33.157 133.709,34.387 134.302,35.278 C 134.892,36.169 135.785,36.613 136.985,36.613 C 138.596,36.612 139.906,35.865 140.35,34.366"
   style="fill:#f5821f"
   id="path12" />
<path
   d="M 141.644,31.819 C 141.644,30.289 142.159,29.013 143.187,27.983 C 144.215,26.958 145.481,26.444 146.984,26.444 C 148.494,26.444 149.765,26.958 150.794,27.99 C 151.823,29.024 152.337,30.299 152.337,31.819 C 152.337,33.503 151.816,34.827 150.769,35.788 C 149.725,36.749 148.464,37.231 146.985,37.231 C 145.506,37.231 144.247,36.744 143.208,35.761 C 142.163,34.781 141.644,33.466 141.644,31.819 M 143.697,31.878 C 143.697,33.648 143.985,34.886 144.562,35.597 C 145.14,36.304 145.95,36.66 146.989,36.66 C 148.054,36.66 148.872,36.304 149.435,35.597 C 150,34.886 150.283,33.648 150.283,31.878 C 150.283,30.128 150.004,28.879 149.441,28.135 C 148.88,27.387 148.063,27.016 146.989,27.016 C 145.925,27.016 145.108,27.387 144.544,28.127 C 143.979,28.87 143.697,30.123 143.697,31.878 z "
   style="fill:#f5821f"
   id="path14" />
<path
   d="M 118.698,19.995 C 118.443,20.116 117.976,20.37 117.299,20.489 C 116.622,20.604 116.031,20.662 115.531,20.662 L 115.531,20.8 C 116.263,20.8 116.724,20.939 116.917,21.214 C 117.107,21.489 117.201,22.404 117.201,23.46 L 117.201,36.848 L 118.967,36.848 L 118.967,19.995 L 118.698,19.995"
   style="fill:#f5821f"
   id="path16" />
<path
   d="M 169.904,28.211 C 169.79,27.749 169.463,27.339 168.92,26.982 C 168.379,26.622 167.716,26.445 166.938,26.445 C 166.257,26.445 165.589,26.63 164.934,27.006 C 164.276,27.379 163.637,27.938 163.013,28.688 C 162.809,27.938 162.45,27.379 161.938,27.006 C 161.425,26.63 160.757,26.445 159.937,26.445 C 159.212,26.445 158.533,26.619 157.904,26.971 C 157.272,27.317 156.686,27.841 156.138,28.543 C 156.138,27.688 156.022,26.988 155.785,26.444 L 155.663,26.444 C 154.904,26.705 153.949,27.023 152.798,27.142 L 152.798,27.306 C 153.351,27.306 153.733,27.372 153.944,27.501 C 154.157,27.634 154.282,28.064 154.315,28.319 C 154.354,28.578 154.374,29.282 154.374,30.426 L 154.374,36.846 L 156.138,36.846 L 156.138,29.209 C 156.686,28.572 157.221,28.098 157.749,27.777 C 158.274,27.459 158.79,27.3 159.298,27.3 C 159.819,27.3 160.256,27.439 160.607,27.722 C 160.959,28.004 161.169,28.342 161.24,28.739 C 161.308,29.136 161.343,29.778 161.343,30.659 L 161.343,36.846 L 163.108,36.846 L 163.108,29.45 C 163.648,28.729 164.184,28.191 164.719,27.836 C 165.253,27.48 165.785,27.303 166.317,27.303 C 166.838,27.303 167.263,27.425 167.59,27.668 C 167.914,27.914 168.116,28.214 168.196,28.555 C 168.272,28.902 168.313,29.411 168.313,30.09 L 168.313,36.848 L 170.078,36.848 L 170.078,30.428 C 170.077,29.404 170.019,28.665 169.904,28.211"
   style="fill:#f5821f"
   id="path18" />
<g
   id="g20">
	<path
   d="M 26.185,0.319 C 26.178,0.318 26.173,0.316 26.167,0.315 C 25.874,0.243 25.564,0.206 25.242,0.204 C 25.239,0.204 25.237,0.204 25.234,0.204 C 25.163,0.203 25.089,0.206 25.016,0.209 C 24.999,0.21 24.98,0.21 24.963,0.212 C 24.905,0.214 24.85,0.219 24.792,0.224 C 24.747,0.229 24.701,0.234 24.655,0.239 C 24.627,0.243 24.597,0.246 24.567,0.251 C 22.653,0.518 20.517,1.915 19.063,4.033 C 19.031,4.081 18.997,4.129 18.964,4.178 C 18.964,4.179 18.964,4.179 18.964,4.179 C 18.895,4.284 18.828,4.39 18.762,4.498 C 20.033,2.528 22.777,2.193 23.77,5.915 C 24.763,9.634 22.345,15.926 16.823,19.393 C 16.823,19.394 16.821,19.397 16.82,19.398 C 16.886,19.712 16.96,20.027 17.04,20.34 C 17.04,20.341 17.042,20.341 17.043,20.341 C 17.053,20.335 17.069,20.328 17.079,20.321 C 20.355,18.379 24.346,16.151 26.639,12.441 C 29.741,7.736 29.581,2.292 26.596,0.452 C 26.526,0.424 26.454,0.399 26.383,0.377 C 26.317,0.355 26.252,0.336 26.185,0.319"
   style="fill:#f5821f"
   id="path22" />
	<path
   d="M 11.576,24.79 C 12.626,28.693 14.323,32.065 16.483,34.77 C 18.612,34.126 20.872,33.098 23.124,31.832 C 23.127,31.832 23.129,31.831 23.131,31.829 C 20.458,28.982 18.258,25.248 17.07,20.466 C 17.059,20.423 17.049,20.381 17.04,20.338 C 16.96,20.025 16.887,19.71 16.82,19.396 C 15.669,13.87 16.644,8.257 18.597,4.777 C 18.713,4.572 18.836,4.373 18.964,4.177 C 18.964,4.177 18.964,4.177 18.964,4.176 C 18.996,4.127 19.03,4.079 19.063,4.031 C 20.517,1.913 22.653,0.515 24.567,0.249 C 24.597,0.244 24.627,0.241 24.655,0.237 C 24.7,0.232 24.747,0.227 24.792,0.222 C 24.85,0.217 24.905,0.212 24.963,0.21 C 24.981,0.208 24.999,0.208 25.017,0.207 C 25.09,0.204 25.163,0.201 25.235,0.202 C 25.238,0.202 25.24,0.202 25.243,0.202 C 25.565,0.204 25.875,0.241 26.168,0.313 C 26.174,0.314 26.179,0.316 26.186,0.317 C 26.253,0.334 26.319,0.353 26.384,0.374 C 26.455,0.396 26.527,0.422 26.597,0.449 C 25.712,-0.093 24.521,-0.134 23.254,0.259 C 23.26,0.255 23.269,0.252 23.275,0.252 C 20.803,0.903 17.715,3.299 15.432,6.404 C 12.316,10.495 10.422,16.55 11.149,22.456 C 11.201,22.874 11.265,23.289 11.343,23.704 C 11.41,24.069 11.487,24.431 11.576,24.79"
   style="fill:#ed1c24"
   id="path24" />
</g>
<path
   d="M 38.488,39.819 C 34.977,39.191 31.014,37.842 27.41,35.436 C 27.399,35.445 27.39,35.454 27.379,35.462 C 25.547,36.953 23.499,38.223 21.374,39.258 C 24.303,41.166 27.671,42.242 31.236,42.309 C 33.934,42.342 36.501,41.713 38.668,39.995 C 38.734,39.921 38.698,39.849 38.488,39.819"
   style="fill:#ed1c24"
   id="path26" />


<g
   id="g72">
	<path
   d="M 34.009,24.637 C 33.924,21.969 32.266,20.251 30.743,19.683 C 31.708,22.806 29.804,28.077 23.131,31.83 C 23.129,31.832 23.127,31.833 23.124,31.833 C 20.872,33.099 18.612,34.127 16.483,34.771 C 12.853,35.867 9.608,35.837 7.454,33.933 C 6.089,32.726 4.004,28.983 11.343,23.706 C 11.265,23.291 11.2,22.876 11.149,22.458 L 11.148,22.458 C 6.985,25.014 2.83,28.195 1.051,31.833 C -1.109,36.26 -0.139,41.196 5.837,42.288 C 9.889,43.03 15.883,41.934 21.374,39.259 C 23.499,38.224 25.547,36.954 27.379,35.463 C 27.391,35.454 27.4,35.445 27.41,35.437 C 31.836,31.891 34.1,27.669 34.009,24.637"
   style="fill:#f5821f"
   id="path74" />
</g>

<path
   d="M 74.874,28.178 C 74.729,27.689 74.402,27.282 73.9,26.949 C 73.394,26.613 72.745,26.445 71.956,26.445 C 71.26,26.445 70.592,26.619 69.954,26.97 C 69.315,27.317 68.706,27.847 68.124,28.554 C 68.098,27.662 67.986,26.958 67.788,26.445 L 67.458,26.445 C 66.513,26.723 65.588,27.049 64.687,27.149 L 64.687,27.298 C 65.274,27.298 65.678,27.363 65.898,27.488 C 66.112,27.615 66.242,28.047 66.29,28.295 C 66.333,28.545 66.355,29.262 66.355,30.434 L 66.355,36.848 L 68.124,36.848 L 68.124,29.389 C 68.598,28.678 69.101,28.146 69.639,27.787 C 70.175,27.433 70.735,27.254 71.323,27.254 C 71.84,27.254 72.263,27.385 72.596,27.646 C 72.931,27.907 73.136,28.205 73.213,28.543 C 73.288,28.879 73.325,29.444 73.325,30.234 L 73.325,36.847 L 75.095,36.847 L 75.095,30.306 C 75.095,29.373 75.02,28.663 74.874,28.178"
   style="fill:#373529"
   id="path98" />
<path
   d="M 53.301,26.937 C 52.997,26.599 52.574,26.425 52.048,26.425 C 51.454,26.425 50.851,26.672 50.235,27.166 C 49.612,27.649 49.168,28.252 48.894,28.98 C 48.87,27.922 48.741,27.07 48.502,26.424 C 47.259,26.818 46.263,27.053 45.494,27.144 L 45.494,27.298 L 45.748,27.298 C 46.269,27.298 46.631,27.372 46.836,27.527 C 47.037,27.68 47.149,28.263 47.183,28.536 C 47.213,28.817 47.228,29.494 47.228,30.583 L 47.228,36.858 L 48.994,36.858 L 48.994,31.665 C 48.994,30.768 49.052,30.061 49.192,29.548 C 49.333,29.03 49.638,28.535 50.112,28.065 C 50.603,27.587 51.01,27.338 51.354,27.338 C 51.639,27.338 51.854,27.54 52.002,27.948 C 52.215,28.545 52.526,28.846 52.937,28.846 C 53.167,28.846 53.365,28.76 53.528,28.585 C 53.688,28.412 53.762,28.213 53.762,27.968 C 53.763,27.615 53.608,27.275 53.301,26.937"
   style="fill:#373529"
   id="path100" />
<path
   d="M 44.54,26.823 L 44.54,27.349 L 42.391,27.349 L 42.391,33.815 C 42.391,34.894 42.406,35.572 42.436,35.855 C 42.463,36.13 42.58,36.347 42.783,36.495 C 42.989,36.641 43.348,36.72 43.873,36.72 L 44.397,36.72 L 44.397,36.848 L 38.957,36.848 L 38.957,36.72 C 39.524,36.72 39.92,36.66 40.14,36.542 C 40.359,36.427 40.492,36.254 40.547,36.017 C 40.598,35.785 40.627,35.048 40.627,33.816 L 40.627,27.35 L 38.762,27.35 L 38.762,26.824 L 40.627,26.824 L 40.627,25.918 C 40.627,24.906 40.67,24.122 40.748,23.564 C 40.832,23.009 41.06,22.435 41.441,21.844 C 41.822,21.252 42.298,20.8 42.877,20.476 C 43.453,20.16 44.139,19.997 44.932,19.997 C 45.899,19.997 46.67,20.2 47.25,20.594 C 47.83,20.995 48.123,21.4 48.123,21.812 C 48.123,22.046 48.036,22.243 47.871,22.397 C 47.703,22.549 47.509,22.626 47.281,22.626 C 46.84,22.626 46.436,22.293 46.069,21.626 C 45.671,20.893 45.157,20.526 44.528,20.526 C 44.016,20.526 43.569,20.713 43.186,21.086 C 42.804,21.458 42.574,21.923 42.501,22.482 C 42.43,23.039 42.391,24.233 42.391,26.068 L 42.391,26.827 L 44.54,26.827"
   style="fill:#373529"
   id="path102" />
<path
   d="M 64.463,34.988 L 64.651,34.988 C 64.574,36.387 63.957,37.088 62.639,37.088 C 62.077,37.088 61.632,36.94 61.307,36.643 C 60.979,36.348 60.766,35.908 60.665,35.321 C 59.843,35.908 59.092,36.348 58.41,36.643 C 57.73,36.94 57.124,37.088 56.588,37.088 C 55.904,37.088 55.314,36.896 54.819,36.503 C 54.326,36.113 54.077,35.599 54.077,34.961 C 54.077,34.123 54.494,33.395 55.319,32.772 C 56.147,32.143 57.29,31.536 58.751,30.94 L 60.665,30.166 L 60.665,29.674 C 60.665,28.985 60.62,28.48 60.531,28.169 C 60.437,27.858 60.202,27.355 59.818,27.108 C 59.436,26.865 58.934,26.741 58.309,26.741 C 57.062,26.741 56.369,27.379 56.226,28.197 C 56.097,29.033 55.754,29.451 55.204,29.451 C 54.71,29.451 54.463,29.213 54.463,28.741 C 54.463,28.277 54.796,27.78 55.463,27.246 C 56.129,26.71 57.168,26.445 58.575,26.445 C 59.622,26.445 60.435,26.606 61.012,26.93 C 61.589,27.254 61.97,27.623 62.154,28.037 C 62.342,28.451 62.435,29.085 62.435,29.934 L 62.435,33.964 C 62.435,34.905 62.484,35.513 62.585,35.779 C 62.686,36.047 62.902,36.178 63.238,36.178 C 63.794,36.18 64.325,35.783 64.463,34.988 M 60.665,30.74 L 59.32,31.279 C 57.192,32.129 56.132,33.198 56.132,34.482 C 56.132,34.99 56.268,35.404 56.537,35.713 C 56.81,36.023 57.164,36.291 57.6,36.291 C 57.989,36.291 58.437,36.209 58.949,35.953 C 59.461,35.698 60.031,35.432 60.665,34.921 L 60.665,30.74 z "
   style="fill:#373529"
   id="path104" />
<path
   d="M 85.837,34.366 L 86.074,34.366 C 85.519,36.275 84.134,37.231 81.913,37.231 C 80.486,37.231 79.284,36.748 78.31,35.783 C 77.336,34.815 76.852,33.534 76.852,31.941 C 76.852,30.306 77.373,28.983 78.426,27.968 C 79.48,26.949 80.721,26.444 82.158,26.444 C 83.023,26.444 83.818,26.629 84.544,27.007 C 85.27,27.379 85.632,27.838 85.632,28.378 C 85.632,28.579 85.567,28.768 85.431,28.946 C 85.299,29.123 85.104,29.21 84.854,29.21 C 84.317,29.21 83.99,28.901 83.866,28.276 C 83.769,27.811 83.617,27.479 83.415,27.294 C 83.204,27.107 82.79,27.016 82.186,27.016 C 81.096,27.016 80.278,27.399 79.725,28.156 C 79.178,28.916 78.903,30.054 78.903,31.583 C 78.903,33.156 79.197,34.386 79.789,35.278 C 80.379,36.169 81.274,36.613 82.471,36.613 C 84.081,36.612 85.396,35.865 85.837,34.366"
   style="fill:#373529"
   id="path106" />
<path
   d="M 95.806,30.26 L 88.793,30.26 C 88.757,30.744 88.74,31.103 88.74,31.336 C 88.74,33.09 89.019,34.41 89.575,35.287 C 90.13,36.171 90.961,36.612 92.059,36.612 C 93.559,36.612 94.906,35.943 95.531,34.606 L 95.805,34.606 C 95.544,35.429 95.024,36.073 94.244,36.534 C 93.464,36.998 92.616,37.231 91.696,37.231 C 90.843,37.231 90.037,37.016 89.279,36.588 C 88.517,36.165 87.897,35.562 87.414,34.779 C 86.933,33.999 86.685,33.052 86.685,31.94 C 86.685,30.365 87.156,29.051 88.092,28.006 C 89.026,26.963 90.193,26.443 91.598,26.443 C 92.918,26.443 93.941,26.843 94.661,27.65 C 95.387,28.454 95.768,29.325 95.806,30.26 M 93.67,29.736 C 93.695,29.548 93.706,29.381 93.706,29.234 C 93.706,28.514 93.493,27.956 93.072,27.562 C 92.65,27.166 92.132,26.969 91.514,26.969 C 90.015,26.969 89.127,27.891 88.842,29.736 L 93.67,29.736 z "
   style="fill:#373529"
   id="path108" />
</svg>